<svg width="800" height="800" viewBox="0 0 800 800" fill="none" xmlns="http://www.w3.org/2000/svg">
<g clip-path="url(#clip0_28_117)">
<path d="M716.586 403.569V332.193C716.586 326.93 712.332 322.676 707.069 322.676H611.901V148.995C611.901 143.732 607.647 139.478 602.384 139.478H506.027C500.764 139.478 496.51 143.732 496.51 148.995V455.911H440.599C435.336 455.911 431.082 460.165 431.082 465.428V543.941C431.082 549.204 435.336 553.458 440.599 553.458H545.283C550.546 553.458 554.8 549.204 554.8 543.941V413.086H707.069C712.322 413.086 716.586 408.822 716.586 403.569ZM697.552 394.052H545.283C540.021 394.052 535.767 398.306 535.767 403.569V534.425H450.116V474.945H506.027C511.29 474.945 515.544 470.691 515.544 465.428V158.512H592.867V332.193C592.867 337.456 597.121 341.71 602.384 341.71H697.552V394.052Z" fill="#F39346"/>
<path d="M303.928 454.721H421.708C426.999 454.721 431.225 450.467 431.225 445.205V300.074C431.225 294.811 426.999 290.557 421.708 290.557H325.95V240.594C325.95 235.331 321.696 231.077 316.433 231.077H211.139C205.877 231.077 201.623 235.331 201.623 240.594V352.416C201.623 357.679 205.877 361.933 211.139 361.933H294.411V445.205C294.411 450.458 298.684 454.721 303.928 454.721ZM220.656 342.899V250.11H306.907V300.074C306.907 305.336 311.161 309.59 316.424 309.59H412.191V435.688H313.445V352.416C313.445 347.153 309.2 342.899 303.928 342.899H220.656Z" fill="#F39346"/>
<path d="M790.483 433.309H628.698C623.435 433.309 619.181 437.563 619.181 442.825V583.198C619.181 588.461 623.435 592.715 628.698 592.715H676.282V752.121C676.282 757.384 680.536 761.638 685.799 761.638H790.483C795.756 761.638 800 757.384 800 752.121V442.825C800 437.563 795.746 433.309 790.483 433.309ZM780.967 742.604H695.315V583.198C695.315 577.935 691.071 573.681 685.799 573.681H638.215V452.342H780.967V742.604Z" fill="#F39346"/>
<path d="M485.356 761.638C490.638 761.638 494.873 757.384 494.873 752.121V583.198C494.873 577.935 490.638 573.681 485.356 573.681H428.255H333.087V504.684C333.087 499.422 328.833 495.168 323.571 495.168H280.745V411.896C280.745 406.633 276.491 402.379 271.228 402.379H187.957V223.939H283.705C288.977 223.939 293.222 219.685 293.222 214.423V102.6C293.222 97.3375 288.977 93.0835 283.705 93.0835H178.44C173.177 93.0835 168.923 97.3375 168.923 102.6V178.735H9.51679C4.254 178.735 0 182.989 0 188.251V411.896V583.198V752.121C0 757.384 4.254 761.638 9.51679 761.638H428.255H485.356ZM475.839 742.604H437.772V592.715H475.839V742.604ZM19.0336 421.413H168.923V573.681H19.0336V421.413ZM187.957 592.715H314.054V658.143H187.957V592.715ZM271.228 514.201H314.054V573.681H187.957V421.413H261.712V504.684C261.712 509.938 265.975 514.201 271.228 514.201ZM187.957 112.117H274.198V204.906H187.957V188.251V112.117ZM19.0336 197.768H168.923V214.423V402.379H19.0336V197.768ZM19.0336 592.715H168.923V667.659C168.923 672.922 173.177 677.176 178.44 677.176H323.571C328.833 677.176 333.087 672.922 333.087 667.659V592.715H418.739V742.604H19.0336V592.715Z" fill="#F39346"/>
<path d="M628.698 269.144H733.383C738.655 269.144 742.899 264.89 742.899 259.627V76.4291C742.899 71.1664 738.655 66.9124 733.383 66.9124H628.698C623.435 66.9124 619.181 71.1664 619.181 76.4291V259.627C619.181 264.881 623.454 269.144 628.698 269.144ZM638.215 85.9459H723.866V250.11H638.215V85.9459Z" fill="#F39346"/>
<path d="M470.186 47.8788C470.186 42.6161 465.932 38.3621 460.669 38.3621H355.395C350.132 38.3621 345.878 42.6161 345.878 47.8788V159.701C345.878 164.964 350.132 169.218 355.395 169.218H460.669C465.942 169.218 470.186 164.964 470.186 159.701V47.8788ZM451.153 150.184H364.902V57.3956H451.153V150.184Z" fill="#F39346"/>
<path d="M470.186 254.869V195.389C470.186 190.126 465.932 185.872 460.669 185.872H355.395C350.132 185.872 345.878 190.126 345.878 195.389V254.869C345.878 260.132 350.132 264.386 355.395 264.386H460.669C465.932 264.386 470.186 260.122 470.186 254.869ZM451.153 245.352H364.902V204.906H451.153V245.352Z" fill="#F39346"/>
</g>
<defs>
<clipPath id="clip0_28_117">
<rect width="800" height="800" fill="white"/>
</clipPath>
</defs>
</svg>
