<svg width="800" height="800" viewBox="0 0 800 800" fill="none" xmlns="http://www.w3.org/2000/svg">
<path d="M784.064 640.638H698.805V344.223H738.645V541.833C738.645 550.634 745.781 557.769 754.581 557.769C763.381 557.769 770.517 550.634 770.517 541.833V344.223H784.062C792.862 344.223 799.998 337.089 799.998 328.288C799.998 319.486 792.862 312.352 784.062 312.352H627.887V81.275C627.887 72.4735 620.752 65.3391 611.952 65.3391H188.048C179.248 65.3391 172.113 72.4735 172.113 81.275V312.35H15.9359C7.13594 312.35 0 319.486 0 328.288C0 337.089 7.13594 344.223 15.9359 344.223H29.4813V640.638H15.9359C7.13594 640.638 0 647.772 0 656.574V718.725C0 727.527 7.13594 734.661 15.9359 734.661H784.064C792.864 734.661 800 727.527 800 718.725V656.574C800 647.772 792.864 640.638 784.064 640.638ZM627.889 344.223H666.933V640.638H627.889V344.223ZM203.984 97.211H596.016V312.35H557.67V154.581C557.67 145.78 550.534 138.645 541.734 138.645H258.266C249.466 138.645 242.33 145.78 242.33 154.581V312.35H203.984V97.211ZM596.016 344.223V640.638H557.67V344.223H596.016ZM415.139 312.35V170.517H525.797V312.35H415.139ZM525.797 344.223V640.638H486.852V344.223H525.797ZM454.98 344.223V640.638H415.139V344.223H454.98ZM274.203 312.35V170.517H383.267V312.35H274.203ZM383.267 344.223V640.638H345.02V344.223H383.267ZM313.147 344.223V640.638H274.203V344.223H313.147ZM203.984 344.223H242.33V640.638H203.984V344.223ZM131.473 344.223H172.111V640.638H131.473V344.223ZM61.3547 344.223H99.6016V640.638H61.3547V344.223ZM768.128 702.789H31.8719V672.511H768.127L768.128 702.789Z" fill="#F39346"/>
<path d="M754.581 576.892C745.781 576.892 738.646 584.026 738.646 592.828V603.983C738.646 612.784 745.781 619.919 754.581 619.919C763.381 619.919 770.517 612.784 770.517 603.983V592.828C770.517 584.026 763.381 576.892 754.581 576.892Z" fill="#F39346"/>
</svg>
