<svg width="496" height="496" viewBox="0 0 496 496" fill="none" xmlns="http://www.w3.org/2000/svg">
<g clip-path="url(#clip0_35_450)">
<path d="M144 144H32V256H144V144ZM128 240H48V160H128V240Z" fill="#F39346"/>
<path d="M272 144H160V256H272V144ZM256 240H176V160H256V240Z" fill="#F39346"/>
<path d="M144 272H32V384H144V272ZM128 368H48V288H128V368Z" fill="#F39346"/>
<path d="M272 272H160V384H272V272ZM256 368H176V288H256V368Z" fill="#F39346"/>
<path d="M80 224H96V208H112V192H96V176H80V192H64V208H80V224Z" fill="#F39346"/>
<path d="M240 192H192V208H240V192Z" fill="#F39346"/>
<path d="M69.656 357.656L88 339.312L106.344 357.656L117.656 346.344L99.312 328L117.656 309.656L106.344 298.344L88 316.688L69.656 298.344L58.344 309.656L76.688 328L58.344 346.344L69.656 357.656Z" fill="#F39346"/>
<path d="M240 304H192V320H240V304Z" fill="#F39346"/>
<path d="M240 336H192V352H240V336Z" fill="#F39346"/>
<path d="M272 80H256V96H272V80Z" fill="#F39346"/>
<path d="M240 80H32V96H240V80Z" fill="#F39346"/>
<path d="M464 432H53.7841L0.456055 464L53.7841 496H464C481.648 496 496 481.648 496 464C496 446.352 481.648 432 464 432ZM384 480H58.2161L31.5441 464L58.2161 448H384V480ZM416 480H400V448H416V480ZM464 480H432V448H464C472.816 448 480 455.176 480 464C480 472.824 472.816 480 464 480Z" fill="#F39346"/>
<path d="M304 48V0H0V416H304V368H496V48H304ZM288 400H16V128H288V400ZM288 112H16V16H288V112ZM480 352H304V64H480V352Z" fill="#F39346"/>
<path d="M387.704 334.752L392 337.488L396.296 334.752C399.064 332.984 464 290.648 464 208C464 125.352 399.064 83.0157 396.296 81.2477L392 78.5117L387.704 81.2477C384.936 83.0157 320 125.352 320 208C320 290.648 384.936 332.984 387.704 334.752ZM392.016 97.8477C400.792 104.576 421.016 122.192 434.6 150.088C422.656 141.28 407.952 136 392 136C376.088 136 361.416 141.248 349.488 150.016C363.08 122.224 383.256 104.592 392.016 97.8477ZM392 152C422.872 152 448 177.128 448 208C448 238.872 422.872 264 392 264C361.128 264 336 238.872 336 208C336 177.128 361.128 152 392 152ZM392 280C407.912 280 422.576 274.752 434.512 265.984C420.912 293.776 400.736 311.408 391.984 318.152C383.208 311.424 362.984 293.808 349.4 265.912C361.344 274.72 376.048 280 392 280Z" fill="#F39346"/>
<path d="M384 248H400V216H432V200H400V168H384V200H352V216H384V248Z" fill="#F39346"/>
</g>
<defs>
<clipPath id="clip0_35_450">
<rect width="496" height="496" fill="white"/>
</clipPath>
</defs>
</svg>
