<svg width="800" height="800" viewBox="0 0 800 800" fill="none" xmlns="http://www.w3.org/2000/svg">
<path d="M400 50C368.555 50 346.191 72.2656 335.156 100H125V725H675V100H464.844C453.809 72.2656 431.445 50 400 50ZM400 100C413.867 100 425 111.133 425 125V150H500V200H300V150H375V125C375 111.133 386.133 100 400 100ZM175 150H250V250H550V150H625V675H175V150ZM532.031 332.031L375 489.062L292.969 407.031L257.031 442.969L357.031 542.969L375 560.156L392.969 542.969L567.969 367.969L532.031 332.031Z" fill="#F39346"/>
</svg>
