<svg width="800" height="800" viewBox="0 0 800 800" fill="none" xmlns="http://www.w3.org/2000/svg">
<path d="M685.158 684.509L685.162 684.506C700.984 668.686 700.984 642.941 685.162 627.119C677.5 619.458 667.305 615.232 656.465 615.232C645.63 615.232 635.437 619.458 627.77 627.127C611.953 642.942 611.953 668.687 627.774 684.506C643.598 700.324 669.34 700.324 685.158 684.509ZM640.393 671.886C636.102 667.595 633.738 661.887 633.738 655.812C633.738 649.742 636.101 644.03 640.393 639.738C644.689 635.447 650.399 633.081 656.471 633.081C662.542 633.081 668.248 635.447 672.543 639.738C681.404 648.603 681.404 663.021 672.539 671.886C663.676 680.751 649.258 680.747 640.393 671.886Z" fill="#F39346"/>
<path d="M755.971 178.994C755.98 178.982 755.992 178.975 756.001 178.965C756.02 178.946 756.038 178.924 756.057 178.905L758.504 176.459L758.442 176.397C794.814 137.368 794.015 76.0351 755.995 38.0165C737.171 19.1911 712.144 8.82312 685.521 8.82312C660.087 8.82312 636.12 18.3071 617.614 35.5698L617.554 35.5102L615.105 37.9578C615.086 37.9782 615.065 37.9956 615.045 38.016C615.036 38.0253 615.028 38.036 615.018 38.0467L29.4982 623.564L29.7262 623.792C26.4533 625.903 24.0822 629.369 23.5129 633.529L4.25687 774.179C3.67065 778.467 5.12354 782.778 8.18176 785.838C10.7929 788.447 14.3182 789.886 17.9613 789.886C18.5844 789.886 19.2115 789.844 19.8386 789.759L160.484 770.497C164.646 769.93 168.112 767.556 170.222 764.284L170.45 764.512L755.971 178.994ZM685.521 36.4862C704.753 36.4862 722.834 43.976 736.433 57.576C761.163 82.304 764.111 120.696 745.276 148.68L645.321 48.7289C657.103 40.7662 670.985 36.4862 685.521 36.4862ZM617.554 74.6307L719.382 176.458L170.45 725.391L132.141 687.084L572.773 246.458L546.395 220.084L105.768 660.714L68.6195 623.564L617.554 74.6307ZM34.1351 759.88L49.9929 644.056L149.955 744.019L34.1351 759.88Z" fill="#F39346"/>
<path d="M225.307 357.546L250.547 332.307L48.5706 130.329L130.985 47.9125L170.062 86.9933L141.71 115.341L164.093 137.723L192.445 109.377L215.228 132.158L186.876 160.508L209.26 182.888L237.614 154.542L260.395 177.327L218.451 219.262L240.84 241.645L282.779 199.707L310.557 227.484L282.205 255.84L304.589 278.219L332.941 249.867L332.96 249.888L358.199 224.648L143.603 10.0542C136.633 3.08267 125.335 3.08267 118.365 10.0542L10.7119 117.709C3.73991 124.679 3.73991 135.979 10.7119 142.948L225.307 357.546Z" fill="#F39346"/>
<path d="M790.642 657.016C790.319 656.692 789.985 656.384 789.646 656.09L565.076 431.524L497.894 498.706L520.232 521.044L562.174 479.101L752.748 669.671L670.329 752.085L457.42 539.178L432.181 564.422L657.708 789.945C664.678 796.918 675.976 796.918 682.948 789.945L790.607 682.295C790.616 682.28 790.628 682.272 790.642 682.256C797.613 675.29 797.613 663.986 790.642 657.016Z" fill="#F39346"/>
</svg>
