<svg width="800" height="800" viewBox="0 0 800 800" fill="none" xmlns="http://www.w3.org/2000/svg">
<g clip-path="url(#clip0_28_70)">
<path d="M519.999 320H438.666L518.666 193.333C521.333 189.333 521.333 184.001 518.666 180.001C515.999 176.001 511.999 173.333 506.666 173.333H399.999C394.666 173.333 390.666 176.001 387.999 180.001L267.999 393.334C265.332 397.334 265.332 402.666 267.999 406.666C270.667 410.666 274.666 413.333 279.999 413.333H349.333L267.999 609.334C265.332 614.667 267.999 621.334 273.332 625.334C274.665 626.666 277.332 626.666 279.999 626.666C283.999 626.666 287.999 625.334 290.666 622.666L530.666 342.667C533.333 338.667 534.666 333.334 531.999 328C529.332 322.666 525.333 320 519.999 320ZM324 539.999L380.001 403.999C381.334 399.999 381.334 395.999 378.668 391.999C376.001 389.332 372.001 386.667 368.001 386.667H302.668L406.666 200H481.332L401.332 326.667C398.665 330.667 398.665 336 401.332 340C403.999 344 407.999 346.667 413.332 346.667H490.665L324 539.999Z" fill="#F39346"/>
<path d="M720 0H80.0005C35.9995 0 0 35.9995 0 80.0005V720C0 763.999 35.9995 800 80.0005 800H720C763.999 800 800 764.001 800 720V80.0005C800 35.9995 763.999 0 720 0ZM773.333 720C773.333 749.334 749.334 773.333 720 773.333H80.0005C50.6665 773.333 26.6668 749.334 26.6668 720V80.0005C26.6668 50.6665 50.6665 26.6668 80.0005 26.6668H720C749.334 26.6668 773.333 50.6665 773.333 80.0005V720Z" fill="#F39346"/>
<path d="M399.999 80.0005C224 80.0005 79.999 224 79.999 400.001C79.999 576.002 223.999 720.001 399.999 720.001C576 720.001 720 576.002 720 400.001C720 224 576 80.0005 399.999 80.0005ZM399.999 693.333C238.666 693.333 106.666 561.333 106.666 399.999C106.666 238.665 238.667 106.667 399.999 106.667C561.331 106.667 693.333 238.667 693.333 400.001C693.333 561.335 561.333 693.333 399.999 693.333Z" fill="#F39346"/>
<path d="M80.0003 106.667C94.6673 106.667 106.667 94.6673 106.667 80.0003C106.667 65.3333 94.6673 53.3335 80.0003 53.3335C65.3333 53.3335 53.3335 65.3333 53.3335 80.0003C53.3335 94.6673 65.3333 106.667 80.0003 106.667Z" fill="#F39346"/>
<path d="M80.0003 693.333C65.3333 693.333 53.3335 705.333 53.3335 720C53.3335 734.667 65.3333 746.667 80.0003 746.667C94.6673 746.667 106.667 734.667 106.667 720C106.667 705.333 94.6657 693.333 80.0003 693.333Z" fill="#F39346"/>
<path d="M720 53.3335C705.333 53.3335 693.333 65.3333 693.333 80.0003C693.333 94.6673 705.333 106.667 720 106.667C734.667 106.667 746.667 94.6673 746.667 80.0003C746.667 65.3333 734.667 53.3335 720 53.3335Z" fill="#F39346"/>
<path d="M720 693.333C705.333 693.333 693.333 705.333 693.333 720C693.333 734.667 705.333 746.667 720 746.667C734.667 746.667 746.667 734.667 746.667 720C746.667 705.333 734.667 693.333 720 693.333Z" fill="#F39346"/>
</g>
<defs>
<clipPath id="clip0_28_70">
<rect width="800" height="800" fill="white"/>
</clipPath>
</defs>
</svg>
