<svg width="800" height="800" viewBox="0 0 800 800" fill="none" xmlns="http://www.w3.org/2000/svg">
<path d="M788.474 630.142L473.636 84.8296C458.267 58.2078 430.738 42.3171 400 42.3171C369.263 42.3171 341.734 58.2109 326.366 84.8296L11.5282 630.142C-3.84209 656.764 -3.84209 688.548 11.5282 715.17C26.8985 741.792 54.4251 757.683 85.1657 757.683H714.838C745.577 757.683 773.103 741.789 788.474 715.17C803.842 688.548 803.842 656.762 788.474 630.142ZM760.622 699.091C751.066 715.644 733.95 725.523 714.838 725.523H85.1626C66.0485 725.523 48.9329 715.641 39.3782 699.091C29.822 682.537 29.822 662.775 39.3782 646.222L354.216 100.909C363.772 84.3562 380.889 74.4765 400 74.4765C419.113 74.4765 436.23 84.3593 445.784 100.909L760.62 646.222C770.18 662.775 770.18 682.537 760.622 699.091Z" fill="#F39346"/>
<path d="M417.944 117.003C412.747 107.983 404.47 106.634 400 106.634C395.534 106.634 387.266 107.98 382.067 116.987L67.2204 662.317C62.0329 671.32 64.9985 679.145 67.2298 683.014C69.4626 686.88 74.7626 693.366 85.1642 693.366H714.838C725.245 693.366 730.542 686.875 732.766 683.017C735 679.151 737.974 671.317 732.77 662.301L417.944 117.003ZM104.995 661.205L400 150.244L695.005 661.206H104.995V661.205Z" fill="#F39346"/>
<path d="M386.216 281.159L385.578 282.664C382.12 290.844 385.949 300.278 394.128 303.734C396.172 304.598 398.294 305.008 400.383 305.008C406.649 305.008 412.606 301.319 415.2 295.184L415.838 293.68C419.295 285.5 415.467 276.066 407.288 272.609C399.108 269.153 389.674 272.98 386.216 281.159Z" fill="#F39346"/>
<path d="M393.292 347.047C396.749 338.866 392.917 329.433 384.738 325.977C376.561 322.527 367.125 326.352 363.667 334.531L319.105 440.016C317.036 444.914 317.522 450.517 320.405 454.988C323.288 459.458 328.191 462.213 333.507 462.348L418.93 464.539L357.532 563.131L356.305 548.838C355.544 539.989 347.752 533.411 338.908 534.194C330.061 534.953 323.503 542.741 324.263 551.589L329.56 613.292C329.975 618.136 332.558 622.528 336.589 625.247C339.277 627.059 342.411 627.997 345.582 627.997C347.166 627.997 348.758 627.763 350.307 627.288L409.5 609.086C417.989 606.475 422.753 597.478 420.144 588.989C417.533 580.502 408.538 575.738 400.047 578.345L382.602 583.709L461.083 457.686C464.132 452.791 464.325 446.638 461.589 441.561C458.855 436.484 453.611 433.261 447.844 433.111L357.908 430.803L393.292 347.047Z" fill="#F39346"/>
</svg>
