<svg width="800" height="800" viewBox="0 0 800 800" fill="none" xmlns="http://www.w3.org/2000/svg">
<path fill-rule="evenodd" clip-rule="evenodd" d="M306.94 516.666H493.062C500.16 500.291 509.638 483.895 518.462 469.953C532.502 447.772 547.497 427.806 556.322 417.035C579.803 388.311 594.467 353.75 598.715 317.345C602.963 280.938 596.633 244.071 580.408 210.973C564.182 177.868 538.688 149.828 506.777 130.156C474.858 110.481 437.855 100.006 400.032 99.9998C362.21 99.9938 325.202 110.458 293.278 130.123C261.36 149.784 235.857 177.818 219.618 210.918C203.383 244.011 197.042 280.875 201.278 317.283C205.513 353.693 220.17 388.261 243.645 416.995C252.453 427.76 267.455 447.725 281.51 469.918C290.343 483.867 299.835 500.275 306.94 516.666ZM582.122 438.141C609.603 404.528 626.832 363.993 631.823 321.208C636.817 278.421 629.368 235.123 610.34 196.303C591.312 157.482 561.475 124.716 524.268 101.781C487.062 78.8457 443.997 66.6733 400.037 66.6665C356.077 66.6597 313.01 78.8183 275.795 101.742C238.582 124.666 208.733 157.422 189.693 196.237C170.652 235.052 163.19 278.347 168.168 321.135C173.147 363.923 190.362 404.463 217.832 438.085C233.873 457.685 274.672 513.626 283.333 550H516.667C525.328 513.655 566.08 457.713 582.122 438.141Z" fill="#F39346"/>
<path d="M316.667 350L416.667 200V300H483.333L383.333 450V350H316.667Z" fill="#F39346"/>
<path d="M283.333 583.333H516.667V616.667H283.333V583.333Z" fill="#F39346"/>
<path fill-rule="evenodd" clip-rule="evenodd" d="M483.333 683.333H316.667V700H483.333V683.333ZM283.333 650V700C283.333 718.41 298.257 733.333 316.667 733.333H483.333C501.743 733.333 516.667 718.41 516.667 700V650H283.333Z" fill="#F39346"/>
</svg>
