<svg width="800" height="800" viewBox="0 0 800 800" fill="none" xmlns="http://www.w3.org/2000/svg">
<path d="M50 209H366.667V366.667C366.667 391.951 356.623 416.199 338.744 434.078C320.866 451.956 296.617 462 271.333 462H145.333C132.814 462 120.417 459.534 108.851 454.743C97.2845 449.952 86.775 442.93 77.9225 434.078C60.044 416.199 50 391.951 50 366.667V209Z" stroke="#F39346" stroke-width="63.6667" stroke-miterlimit="10"/>
<path d="M113.667 18.3333V209" stroke="#F39346" stroke-width="63.6667" stroke-miterlimit="10"/>
<path d="M304.667 18.3333V209" stroke="#F39346" stroke-width="63.6667" stroke-miterlimit="10"/>
<path d="M145.333 463.667H272.667V527.333C272.667 544.219 265.959 560.413 254.019 572.353C242.079 584.292 225.886 591 209 591C200.639 591 192.36 589.353 184.636 586.154C176.912 582.954 169.893 578.265 163.981 572.353C152.041 560.413 145.333 544.219 145.333 527.333V463.667Z" stroke="#F39346" stroke-width="63.6667" stroke-miterlimit="10"/>
<path d="M209 591V606.667C209 644.681 224.101 681.138 250.981 708.019C277.862 734.899 314.319 750 352.333 750C371.14 750 389.763 746.29 407.134 739.083C424.505 731.876 440.284 721.313 453.568 707.998C466.851 694.684 477.377 678.881 484.544 661.493C491.711 644.105 495.377 625.474 495.333 606.667V336.333C495.333 302.562 508.749 270.175 532.628 246.295C556.508 222.415 588.896 209 622.667 209C656.438 209 688.825 222.415 712.705 246.295C736.585 270.175 750 302.562 750 336.333V781.667" stroke="#F39346" stroke-width="63.6667" stroke-miterlimit="10"/>
</svg>
