<svg width="800" height="800" viewBox="0 0 800 800" fill="none" xmlns="http://www.w3.org/2000/svg">
<g clip-path="url(#clip0_34_373)">
<path d="M799.781 227.971C799.631 227.239 799.406 226.534 799.117 225.863L743.533 96.1683C741.816 92.1621 737.877 89.5649 733.519 89.5649H66.4807C62.1231 89.5649 58.1837 92.1621 56.4668 96.1683L0.883156 225.866C0.595549 226.535 0.370403 227.239 0.220789 227.969C0.0697228 228.701 0 229.436 0 230.167V699.541C0 705.558 4.87769 710.435 10.8942 710.435H789.106C795.124 710.435 800 705.558 800 699.541V230.167C800.001 229.436 799.93 228.701 799.781 227.971ZM778.212 688.647H21.7884V241.055H640.875C646.893 241.055 651.769 236.178 651.769 230.161C651.769 224.145 646.893 219.267 640.875 219.267H27.4156L73.6636 111.353H726.335L772.584 219.267H733.518C727.5 219.267 722.624 224.145 722.624 230.161C722.624 236.178 727.5 241.055 733.518 241.055H778.212V688.647ZM742.402 200.449C744.415 197.383 744.75 193.507 743.292 190.14L717.46 130.484C715.734 126.498 711.805 123.918 707.462 123.918H92.5382C88.195 123.918 84.2673 126.498 82.5417 130.484L56.7094 190.14C55.251 193.507 55.5865 197.381 57.5998 200.449C59.613 203.517 63.0367 205.363 66.7059 205.363H733.296C736.965 205.363 740.387 203.515 742.402 200.449ZM83.2941 183.575L99.6921 145.706H700.308L716.706 183.575H83.2941ZM233.24 515.728H103.538C97.5219 515.728 92.6442 520.606 92.6442 526.623V619.267C92.6442 625.283 97.5219 630.161 103.538 630.161H233.24C239.257 630.161 244.135 625.283 244.135 619.267V526.623C244.135 520.606 239.257 515.728 233.24 515.728ZM222.346 608.373H114.433V537.517H222.346V608.373ZM555.865 526.623V619.267C555.865 625.283 560.742 630.161 566.76 630.161H696.462C702.479 630.161 707.356 625.283 707.356 619.267V526.623C707.356 520.606 702.479 515.728 696.462 515.728H566.76C560.743 515.728 555.865 520.606 555.865 526.623ZM577.654 537.517H685.567V608.373H577.654V537.517ZM37.0577 264.401V359.863C37.0577 365.879 41.9354 370.757 47.9519 370.757H111.173V386.027H47.9519C41.9354 386.027 37.0577 390.904 37.0577 396.921V667.57C37.0577 673.587 41.9354 678.464 47.9519 678.464H752.048C758.066 678.464 762.942 673.587 762.942 667.57V396.921C762.942 390.904 758.066 386.027 752.048 386.027H688.828V370.757H752.048C758.066 370.757 762.942 365.879 762.942 359.863V264.401C762.942 258.384 758.066 253.507 752.048 253.507H47.9519C41.9354 253.507 37.0577 258.383 37.0577 264.401ZM741.154 407.815V656.676H58.8461V407.815H111.173V443.243C111.173 449.259 116.051 454.137 122.067 454.137H214.712C220.728 454.137 225.606 449.259 225.606 443.243V407.815H574.394V443.243C574.394 449.259 579.271 454.137 585.288 454.137H677.933C683.951 454.137 688.827 449.259 688.827 443.243V407.815H741.154ZM667.039 359.835C667.039 359.846 667.037 359.854 667.037 359.863C667.037 359.872 667.039 359.882 667.039 359.891V396.892C667.039 396.9 667.037 396.911 667.037 396.919C667.037 396.928 667.039 396.938 667.039 396.947V432.347H596.183V396.947C596.183 396.938 596.184 396.928 596.184 396.919C596.184 396.911 596.183 396.9 596.183 396.892V324.434H667.039V359.835ZM574.394 386.027H225.606V370.757H574.394V386.027ZM203.817 359.848C203.817 359.853 203.817 359.857 203.817 359.863C203.817 359.869 203.817 359.872 203.817 359.878V432.349H132.961V324.435H203.817V359.848ZM58.8461 275.295H741.154V348.969H688.828V313.541C688.828 307.524 683.952 302.647 677.934 302.647H585.29C579.272 302.647 574.396 307.524 574.396 313.541V348.969H225.607V313.541C225.607 307.524 220.729 302.647 214.713 302.647H122.069C116.052 302.647 111.175 307.524 111.175 313.541V348.969H58.8461V275.295ZM669.778 548.426H593.443C587.425 548.426 582.549 553.303 582.549 559.32V590.29C582.549 596.306 587.425 601.184 593.443 601.184H669.778C675.796 601.184 680.672 596.306 680.672 590.29V559.32C680.672 553.303 675.796 548.426 669.778 548.426ZM658.884 579.396H604.337V570.214H658.884V579.396ZM130.222 601.184H206.557C212.573 601.184 217.451 596.306 217.451 590.29V559.32C217.451 553.303 212.573 548.426 206.557 548.426H130.222C124.205 548.426 119.328 553.303 119.328 559.32V590.29C119.328 596.306 124.205 601.184 130.222 601.184ZM141.116 570.214H195.663V579.396H141.116V570.214ZM614.176 400.777H649.047C655.065 400.777 659.941 395.9 659.941 389.883V349.903C659.941 343.886 655.065 339.009 649.047 339.009H614.176C608.158 339.009 603.281 343.886 603.281 349.903V389.883C603.281 395.9 608.158 400.777 614.176 400.777ZM625.07 360.797H638.153V378.989H625.07V360.797ZM150.953 400.777H185.824C191.841 400.777 196.719 395.9 196.719 389.883V349.903C196.719 343.886 191.841 339.009 185.824 339.009H150.953C144.936 339.009 140.059 343.886 140.059 349.903V389.883C140.059 395.9 144.936 400.777 150.953 400.777ZM161.847 360.797H174.93V378.989H161.847V360.797Z" fill="#F39346"/>
</g>
<defs>
<clipPath id="clip0_34_373">
<rect width="800" height="800" fill="white"/>
</clipPath>
</defs>
</svg>
