<svg width="800" height="800" viewBox="0 0 800 800" fill="none" xmlns="http://www.w3.org/2000/svg">
<g clip-path="url(#clip0_28_102)">
<path d="M736.059 486.119C740.996 498.265 752.91 506.86 766.806 506.86C785.109 506.86 800 491.969 800 473.666C800 455.363 785.109 440.472 766.806 440.472C752.905 440.472 740.99 449.073 736.054 461.224H629.95V436.743H673.035C676.336 436.743 679.503 435.432 681.837 433.097L717.118 397.815C720.941 399.354 725.103 400.223 729.47 400.223C747.773 400.223 762.664 385.332 762.664 367.029C762.664 348.726 747.773 333.836 729.47 333.836C711.167 333.836 696.276 348.726 696.276 367.029C696.276 371.844 697.33 376.412 699.182 380.546L667.88 411.848H629.95V230.437C629.95 223.562 624.376 217.989 617.502 217.989H508.361C501.486 217.989 495.913 223.562 495.913 230.437V313.504H467.798V230.437C467.798 223.562 462.224 217.989 455.35 217.989H346.21C339.336 217.989 333.763 223.562 333.763 230.437V313.504H304.087V230.437C304.087 223.562 298.514 217.989 291.64 217.989H182.498C175.624 217.989 170.05 223.562 170.05 230.437V411.848H132.12L100.818 380.546C102.67 376.412 103.724 371.846 103.724 367.029C103.724 348.726 88.8334 333.836 70.5303 333.836C52.2272 333.836 37.3364 348.726 37.3364 367.029C37.3364 385.332 52.2272 400.223 70.5303 400.223C74.8969 400.223 79.0578 399.354 82.8817 397.815L118.163 433.097C120.497 435.432 123.664 436.743 126.965 436.743H170.05V461.224H63.9463C59.0104 449.071 47.0954 440.472 33.1939 440.472C14.8908 440.472 0 455.363 0 473.666C0 491.969 14.8908 506.86 33.1939 506.86C47.0921 506.86 59.0037 498.266 63.9413 486.119H170.05V510.599H113.684C110.383 510.599 107.216 511.911 104.883 514.246L69.6125 549.516C65.7902 547.976 61.6277 547.108 57.2611 547.108C38.958 547.108 24.0672 561.998 24.0672 580.302C24.0672 598.605 38.958 613.495 57.2611 613.495C75.5641 613.495 90.4549 598.605 90.4549 580.302C90.4549 575.487 89.401 570.921 87.5488 566.787L118.841 535.495H170.052V684.829C170.052 709.119 183.233 731.551 204.453 743.373C214.665 749.062 225.868 751.909 237.07 751.909C248.273 751.909 259.476 749.064 269.688 743.373C290.908 731.551 304.089 709.119 304.089 684.829V633.827H333.764V684.829C333.764 709.119 346.945 731.553 368.165 743.373C378.377 749.062 389.58 751.907 400.783 751.907C411.985 751.907 423.188 749.062 433.4 743.373C454.62 731.551 467.801 709.119 467.801 684.829V633.827H495.916V684.829C495.916 709.119 509.097 731.551 530.317 743.373C540.53 749.064 551.73 751.909 562.934 751.909C574.137 751.909 585.342 749.062 595.552 743.373C616.772 731.551 629.953 709.117 629.953 684.829V535.495H681.164L712.456 566.787C710.604 570.921 709.55 575.487 709.55 580.302C709.55 598.605 724.441 613.495 742.744 613.495C761.047 613.495 775.938 598.605 775.938 580.302C775.938 561.998 761.047 547.108 742.744 547.108C738.377 547.108 734.215 547.977 730.393 549.516L695.122 514.246C692.789 511.911 689.622 510.599 686.321 510.599H629.955V486.119H736.059ZM766.806 465.368C771.382 465.368 775.105 469.091 775.105 473.666C775.105 478.242 771.382 481.965 766.806 481.965C762.23 481.965 758.508 478.242 758.508 473.666C758.508 469.091 762.23 465.368 766.806 465.368ZM729.47 358.733C734.045 358.733 737.768 362.455 737.768 367.031C737.768 371.607 734.045 375.33 729.47 375.33C724.894 375.33 721.171 371.607 721.171 367.031C721.171 362.455 724.894 358.733 729.47 358.733ZM62.2335 367.031C62.2335 362.455 65.9562 358.733 70.532 358.733C75.1077 358.733 78.8304 362.455 78.8304 367.031C78.8304 371.607 75.1077 375.33 70.532 375.33C65.9562 375.33 62.2335 371.607 62.2335 367.031ZM33.1939 481.965C28.6181 481.965 24.8954 478.242 24.8954 473.666C24.8954 469.091 28.6181 465.368 33.1939 465.368C37.7696 465.368 41.4923 469.091 41.4923 473.666C41.4923 478.242 37.7696 481.965 33.1939 481.965ZM57.2594 588.6C52.6836 588.6 48.9609 584.877 48.9609 580.302C48.9609 575.726 52.6836 572.003 57.2594 572.003C61.8352 572.003 65.5579 575.726 65.5579 580.302C65.5579 584.877 61.8352 588.6 57.2594 588.6ZM751.039 580.302C751.039 584.877 747.316 588.6 742.741 588.6C738.165 588.6 734.442 584.877 734.442 580.302C734.442 575.726 738.165 572.003 742.741 572.003C747.316 572.003 751.039 575.726 751.039 580.302ZM605.054 242.884V254.368H520.808V242.884H605.054ZM442.902 242.884V254.368H358.658V242.884H442.902ZM279.192 242.884V254.368H194.946V242.884H279.192ZM257.569 721.626C244.733 728.779 229.404 728.779 216.567 721.626C203.229 714.196 194.946 700.096 194.946 684.829V279.265H279.192V684.829C279.192 700.096 270.907 714.196 257.569 721.626ZM304.087 608.931V338.401H333.763V608.931H304.087ZM421.281 721.626C408.445 728.779 393.116 728.779 380.279 721.626C366.941 714.196 358.658 700.096 358.658 684.829V279.265H442.902V684.829C442.902 700.096 434.617 714.196 421.281 721.626ZM467.798 608.931V338.401H495.913V608.931H467.798ZM583.433 721.626C570.597 728.778 555.268 728.779 542.431 721.626C529.093 714.196 520.808 700.096 520.808 684.829V279.265H605.054V684.829C605.054 700.096 596.769 714.196 583.433 721.626Z" fill="#F39346"/>
<path d="M558.782 134.042C558.782 141.935 556.508 145.175 552.743 150.542C550.721 153.424 548.429 156.688 546.49 160.818C543.568 167.04 546.243 174.454 552.465 177.376C554.177 178.18 555.976 178.56 557.75 178.56C562.425 178.56 566.906 175.912 569.024 171.401C570.047 169.224 571.472 167.194 573.12 164.844C577.577 158.496 583.678 149.801 583.678 134.043C583.678 118.286 577.577 109.591 573.12 103.243C569.353 97.8754 567.081 94.6357 567.081 86.7438C567.081 78.8537 569.354 75.614 573.12 70.2482C573.759 69.3387 574.398 68.4275 575.022 67.4997C578.863 61.7987 577.356 54.0628 571.653 50.2207C565.954 46.3785 558.215 47.8871 554.374 53.5882C553.838 54.3848 553.289 55.1649 552.741 55.9449C548.285 62.2933 542.184 70.9867 542.184 86.7422C542.184 102.499 548.285 111.194 552.741 117.543C556.51 122.909 558.782 126.147 558.782 134.042Z" fill="#F39346"/>
<path d="M395.85 134.042C395.85 141.935 393.576 145.175 389.81 150.542C387.789 153.424 385.497 156.688 383.558 160.818C380.636 167.04 383.311 174.454 389.533 177.376C391.244 178.18 393.044 178.56 394.818 178.56C399.493 178.56 403.974 175.912 406.092 171.401C407.114 169.224 408.54 167.194 410.188 164.844C414.644 158.496 420.745 149.801 420.745 134.043C420.745 118.286 414.644 109.591 410.188 103.243C406.421 97.8754 404.148 94.6357 404.148 86.7438C404.148 78.8537 406.422 75.614 410.188 70.2482C410.827 69.3387 411.466 68.4275 412.09 67.4997C415.931 61.7987 414.424 54.0628 408.721 50.2207C403.022 46.3785 395.282 47.8871 391.442 53.5882C390.906 54.3848 390.356 55.1649 389.809 55.9449C385.352 62.2933 379.251 70.9867 379.251 86.7422C379.251 102.499 385.352 111.194 389.809 117.543C393.578 122.909 395.85 126.147 395.85 134.042Z" fill="#F39346"/>
<path d="M232.92 134.042C232.92 141.935 230.646 145.175 226.88 150.541C224.859 153.422 222.566 156.687 220.626 160.816C217.704 167.038 220.379 174.452 226.601 177.375C228.312 178.178 230.111 178.558 231.886 178.558C236.561 178.558 241.042 175.911 243.16 171.4C244.182 169.222 245.608 167.192 247.256 164.842C251.712 158.494 257.813 149.799 257.813 134.042C257.813 118.285 251.712 109.589 247.256 103.241C243.489 97.8736 241.216 94.6339 241.216 86.7421C241.216 78.8503 243.49 75.6105 247.256 70.2448C247.895 69.3352 248.532 68.4257 249.158 67.4963C252.999 61.7953 251.492 54.0594 245.789 50.2172C240.09 46.375 232.354 47.8837 228.51 53.5848C227.974 54.3814 227.426 55.1615 226.878 55.9415C222.422 62.2898 216.321 70.9833 216.321 86.7404C216.321 102.498 222.422 111.193 226.878 117.541C230.646 122.908 232.92 126.147 232.92 134.042Z" fill="#F39346"/>
</g>
<defs>
<clipPath id="clip0_28_102">
<rect width="800" height="800" fill="white"/>
</clipPath>
</defs>
</svg>
