<svg width="496" height="496" viewBox="0 0 496 496" fill="none" xmlns="http://www.w3.org/2000/svg">
<g clip-path="url(#clip0_34_319)">
<path d="M435.264 338.44C448.824 310.368 456 279.344 456 248C456 216.656 448.824 185.632 435.264 157.56C470.08 148.896 496 117.456 496 80C496 35.888 460.112 0 416 0C378.488 0 347.008 25.992 338.408 60.88C332.176 57.872 325.8 55.144 319.232 52.752C314.728 22.944 289.008 0 257.968 0H238.032C206.992 0 181.272 22.944 176.776 52.752C170.208 55.144 163.832 57.88 157.6 60.88C148.992 25.992 117.512 0 80 0C35.888 0 0 35.888 0 80C0 117.456 25.92 148.896 60.736 157.56C47.176 185.632 40 216.656 40 248C40 279.344 47.176 310.368 60.736 338.44C25.92 347.104 0 378.544 0 416C0 460.112 35.888 496 80 496C117.472 496 148.92 470.064 157.568 435.224C160.952 436.848 164.448 438.376 168 439.856V496H328V439.856C331.552 438.376 335.048 436.856 338.432 435.224C347.08 470.064 378.528 496 416 496C460.112 496 496 460.112 496 416C496 378.544 470.08 347.104 435.264 338.44ZM416 16C451.288 16 480 44.712 480 80C480 115.288 451.288 144 416 144C380.712 144 352 115.288 352 80C352 44.712 380.712 16 416 16ZM192 62.032C192 36.648 212.648 16 238.032 16H257.968C283.352 16 304 36.648 304 62.032V65.128C299.656 61.464 295.752 57.208 292.464 52.272C287.344 44.584 278.784 40 269.544 40H226.448C217.216 40 208.648 44.584 203.264 52.68C200.136 57.376 196.296 61.536 192 65.144V62.032ZM192 84.568C201.784 78.8 210.304 70.968 216.864 61.128C219 57.92 222.584 56 226.456 56H269.552C273.416 56 277.008 57.92 279.424 61.552C285.736 71.016 294.224 78.808 304 84.568V88C304 118.872 278.872 144 248 144C217.128 144 192 118.872 192 88V84.568ZM274.76 160C268.696 165.504 258.248 171.44 248 175.456C237.752 171.448 227.296 165.504 221.24 160H274.76ZM16 80C16 44.712 44.712 16 80 16C115.288 16 144 44.712 144 80C144 115.288 115.288 144 80 144C44.712 144 16 115.288 16 80ZM80 480C44.712 480 16 451.288 16 416C16 380.712 44.712 352 80 352C115.288 352 144 380.712 144 416C144 451.288 115.288 480 80 480ZM168 422.48C165.2 421.208 162.536 419.848 159.872 418.472C159.896 417.648 160 416.832 160 416C160 371.888 124.112 336 80 336C79.16 336 78.344 336.104 77.504 336.128C63.48 309.016 56 278.68 56 248C56 217.32 63.48 186.984 77.504 159.872C78.344 159.896 79.16 160 80 160C124.112 160 160 124.112 160 80C160 79.184 159.904 78.392 159.88 77.576C165.104 74.872 170.48 72.424 176 70.192V88C176 110.608 186.496 130.792 202.84 144H192C152.296 144 120 176.296 120 216V296C120 322.472 141.528 344 168 344V422.48ZM168 328C150.352 328 136 313.648 136 296V232H168V328ZM240 480H184V464H240V480ZM312 480H256V464H312V480ZM312 448H256V360H240V448H184V367.192C202.232 363.472 216 347.32 216 328H280C280 347.312 293.768 363.472 312 367.192V448ZM184 350.528V328H200C200 338.416 193.288 347.216 184 350.528ZM312 350.528C302.712 347.216 296 338.416 296 328H312V350.528ZM312 200V312H184V200H168V216H136C136 185.128 161.128 160 192 160H201.656C209.016 177.672 238.68 189.16 245.304 191.528L248 192.504L250.696 191.536C257.312 189.168 286.984 177.68 294.344 160.008H304C334.872 160.008 360 185.136 360 216.008H328V216V200H312ZM360 232V296C360 313.648 345.648 328 328 328V232H360ZM336.128 418.472C333.464 419.848 330.8 421.208 328 422.48V344C354.472 344 376 322.472 376 296V216C376 176.296 343.704 144 304 144H293.16C309.504 130.792 320 110.608 320 88V70.192C325.52 72.424 330.896 74.88 336.12 77.576C336.096 78.392 336 79.184 336 80C336 124.112 371.888 160 416 160C416.84 160 417.656 159.896 418.496 159.872C432.52 186.984 440 217.32 440 248C440 278.68 432.52 309.016 418.496 336.128C417.656 336.104 416.84 336 416 336C371.888 336 336 371.888 336 416C336 416.832 336.104 417.648 336.128 418.472ZM416 480C380.712 480 352 451.288 352 416C352 380.712 380.712 352 416 352C451.288 352 480 380.712 480 416C480 451.288 451.288 480 416 480Z" fill="#F39346"/>
<path d="M120 40H40V56H120V40Z" fill="#F39346"/>
<path d="M120 72H40V88H120V72Z" fill="#F39346"/>
<path d="M120 104H104V120H120V104Z" fill="#F39346"/>
<path d="M88 104H40V120H88V104Z" fill="#F39346"/>
<path d="M456 40H376V56H456V40Z" fill="#F39346"/>
<path d="M456 72H376V88H456V72Z" fill="#F39346"/>
<path d="M456 104H440V120H456V104Z" fill="#F39346"/>
<path d="M424 104H376V120H424V104Z" fill="#F39346"/>
<path d="M120 376H40V392H120V376Z" fill="#F39346"/>
<path d="M120 408H40V424H120V408Z" fill="#F39346"/>
<path d="M120 440H104V456H120V440Z" fill="#F39346"/>
<path d="M88 440H40V456H88V440Z" fill="#F39346"/>
<path d="M456 376H376V392H456V376Z" fill="#F39346"/>
<path d="M456 408H376V424H456V408Z" fill="#F39346"/>
<path d="M456 440H440V456H456V440Z" fill="#F39346"/>
<path d="M424 440H376V456H424V440Z" fill="#F39346"/>
</g>
<defs>
<clipPath id="clip0_34_319">
<rect width="496" height="496" fill="white"/>
</clipPath>
</defs>
</svg>
