<svg width="800" height="800" viewBox="0 0 800 800" fill="none" xmlns="http://www.w3.org/2000/svg">
<g clip-path="url(#clip0_28_49)">
<path fill-rule="evenodd" clip-rule="evenodd" d="M62.3047 403.516C51.3949 408.086 39.2226 408.663 27.9297 405.143C20.4993 402.704 13.9242 398.185 8.98441 392.123C3.95397 385.818 0.836038 378.204 3.1944e-05 370.182C-0.590638 362.999 0.256639 355.769 2.49233 348.917C4.72803 342.065 8.30728 335.727 13.0209 330.274C13.5785 329.618 14.1881 329.008 14.8438 328.451L391.341 87.5001C393.317 85.6822 395.875 84.6254 398.558 84.5181C401.241 84.4108 403.875 85.2599 405.99 86.9142L782.943 327.8C783.459 328.14 783.92 328.557 784.31 329.037C790.487 335.003 795.053 342.438 797.58 350.646C800.107 358.854 800.514 367.569 798.763 375.977C797.077 382.972 793.676 389.438 788.867 394.792C784.126 400.16 778.1 404.237 771.354 406.641C765.384 408.718 759.058 409.576 752.75 409.162C746.443 408.748 740.283 407.072 734.635 404.232V714.649H707.747V394.011C707.747 388.542 424.544 217.383 401.107 199.154C376.302 218.034 89.1927 387.956 89.1927 394.922V715.43H62.3047V403.516ZM533.464 441.211H607.943L633.984 537.37H507.813L533.854 441.211H533.464ZM577.93 553.255V692.318H598.958C600.331 692.466 601.6 693.117 602.522 694.144C603.444 695.172 603.954 696.504 603.954 697.884C603.954 699.265 603.444 700.597 602.522 701.624C601.6 702.651 600.331 703.302 598.958 703.451H542.839C541.466 703.302 540.197 702.651 539.275 701.624C538.353 700.597 537.842 699.265 537.842 697.884C537.842 696.504 538.353 695.172 539.275 694.144C540.197 693.117 541.466 692.466 542.839 692.318H563.672V553.255H577.93ZM377.214 686.524V702.995H361.068V686.524H210.677V702.995H194.466V686.589H188.802C183.896 686.945 179.03 685.485 175.13 682.487C173.153 680.656 171.602 678.412 170.59 675.914C169.577 673.416 169.127 670.725 169.271 668.034V566.276C165.123 565.148 161.156 563.438 157.487 561.198C153.06 558.553 149.541 554.625 147.396 549.935C144.114 543.955 142.819 537.087 143.696 530.323C144.574 523.559 147.58 517.249 152.279 512.305C156.173 508.267 160.939 505.172 166.211 503.255C171.5 501.342 177.149 500.63 182.747 501.172C186.922 501.456 191.006 502.516 194.792 504.297V465.886C194.792 445.313 197.917 434.57 205.859 428.516C213.802 422.461 224.74 422.461 241.667 422.461H330.339C348.763 422.461 359.961 423.177 367.318 429.753C374.675 436.328 376.823 447.656 376.823 468.815V506.445C381.893 504.075 387.438 502.895 393.034 502.995C398.388 503.011 403.682 504.119 408.594 506.25C413.575 508.25 418.03 511.369 421.615 515.365C425.788 520.184 428.326 526.201 428.864 532.553C429.402 538.905 427.912 545.264 424.609 550.716C422.258 555.18 418.779 558.951 414.518 561.654C410.864 563.953 406.894 565.707 402.734 566.862V667.904C402.891 670.581 402.452 673.26 401.45 675.747C400.448 678.235 398.908 680.47 396.94 682.292C393.04 685.29 388.174 686.749 383.268 686.393H377.474L377.214 686.524ZM204.753 511.589C208.044 515.367 210.486 519.807 211.914 524.609C212.761 527.319 213.307 530.114 213.542 532.943C213.803 536.062 213.803 539.198 213.542 542.318V555.339H358.073V542.318C357.818 539.307 357.818 536.279 358.073 533.268C358.261 530.255 358.92 527.289 360.026 524.479C361.633 520.381 363.971 516.609 366.927 513.346V468.62C366.927 450.716 365.56 441.471 360.417 437.175C355.273 432.878 346.094 432.487 330.078 432.487H241.667C226.823 432.487 216.992 432.487 211.784 436.589C206.576 440.69 204.753 448.893 204.753 466.016V511.589ZM213.542 565.755V582.487H358.073V565.755H213.542ZM182.292 510.872C178.09 510.576 173.874 511.175 169.922 512.63C166.656 513.675 163.665 515.434 161.165 517.781C158.666 520.128 156.722 523.003 155.474 526.197C154.227 529.39 153.708 532.822 153.954 536.241C154.201 539.661 155.208 542.982 156.901 545.964C158.108 548.909 160.144 551.442 162.76 553.255C166.614 555.579 170.844 557.209 175.26 558.073C176.363 558.31 177.352 558.918 178.062 559.794C178.773 560.67 179.162 561.763 179.167 562.891V667.839C179.022 669.105 179.15 670.388 179.543 671.601C179.936 672.814 180.585 673.929 181.445 674.87C183.572 676.416 186.18 677.155 188.802 676.953H203.581V541.927C203.842 539.33 203.842 536.712 203.581 534.115C203.442 531.901 203.027 529.714 202.344 527.604C201.128 523.092 198.55 519.064 194.962 516.07C191.373 513.075 186.949 511.261 182.292 510.872ZM368.425 559.31C368.492 559.807 368.492 560.311 368.425 560.807C368.492 561.326 368.492 561.851 368.425 562.37V586.393C368.511 587.129 368.511 587.872 368.425 588.607V676.563H383.203C385.796 676.825 388.403 676.231 390.625 674.87C392.273 672.939 393.091 670.435 392.904 667.904V562.565C392.905 561.372 393.331 560.218 394.107 559.311C394.883 558.404 395.957 557.803 397.135 557.617C401.421 556.76 405.52 555.151 409.245 552.865C412.004 551.116 414.25 548.667 415.755 545.768C418.127 542.074 419.254 537.718 418.973 533.337C418.692 528.956 417.017 524.78 414.193 521.419C411.644 518.606 408.511 516.384 405.013 514.909C401.278 513.342 397.279 512.503 393.229 512.435C388.131 512.265 383.105 513.683 378.848 516.494C374.591 519.305 371.312 523.369 369.466 528.125C368.769 529.982 368.374 531.938 368.294 533.919C368.069 536.562 368.069 539.219 368.294 541.862C368.326 542.012 368.326 542.168 368.294 542.318V559.31H368.425ZM213.802 676.497H358.073V592.318H213.542V676.563L213.802 676.497ZM642.383 104.037L735.286 107.813V232.943L642.383 188.672V104.037Z" fill="#F39346"/>
</g>
<defs>
<clipPath id="clip0_28_49">
<rect width="800" height="800" fill="white"/>
</clipPath>
</defs>
</svg>
