<svg width="800" height="800" viewBox="0 0 800 800" fill="none" xmlns="http://www.w3.org/2000/svg">
<path d="M400 0C242.65 0 114.63 128.012 114.63 285.37C114.63 391.242 174.65 489.713 268.231 538.553L285.886 786.269C286.422 793.738 292.638 800 300.121 800H485.611C493.094 800 499.308 793.736 499.844 786.269L516.989 545.983C619.572 499.903 685.369 398.539 685.369 285.492C685.37 128.134 557.35 0 400 0ZM472.325 771.462H313.406L311.369 742.925H474.363L472.325 771.462ZM476.402 714.389H309.331L307.294 685.852H478.441L476.402 714.389ZM497.928 522.889C492.933 524.952 489.533 530.145 489.142 535.537L480.478 657.314H305.255L296.121 528.919C295.758 523.833 292.7 519.075 288.108 516.859C200.058 474.18 143.166 383.28 143.166 285.491C143.166 143.878 258.38 28.5953 399.999 28.5953C541.617 28.5953 656.831 143.789 656.831 285.4C656.833 389.838 594.456 483.023 497.928 522.889Z" fill="#F39346"/>
<path d="M400 271.102C360.664 271.102 327.919 303.108 327.919 342.444C327.919 376.895 352.15 405.719 384.255 412.347V556.47C384.255 564.356 390.644 570.739 398.524 570.739C406.403 570.739 412.792 564.358 412.792 556.47V412.347C448.464 405.717 470.605 376.895 470.605 342.444C470.603 303.108 439.336 271.102 400 271.102ZM412.791 382.752V356.713C412.791 348.827 406.402 342.444 398.522 342.444C390.642 342.444 384.253 348.825 384.253 356.713V382.752C369.985 376.858 356.455 361.039 356.455 342.444C356.455 318.839 376.025 299.638 399.63 299.638C423.235 299.638 441.881 318.839 441.881 342.444C441.883 361.039 430.627 376.858 412.791 382.752Z" fill="#F39346"/>
</svg>
