<svg width="800" height="800" viewBox="0 0 800 800" fill="none" xmlns="http://www.w3.org/2000/svg">
<path d="M300 133.333H733.333V166.667H300V133.333ZM300 700H733.333V666.667H300V700ZM300 433.333H733.333V400H300V433.333ZM118.667 739L233.333 624.667L208.667 600L118.333 690L81.0002 656.667L56.3335 681.333L118.333 739H118.667ZM118.667 205.667L233.333 91.3334L208.667 66.6667L118.333 156.667L81.0002 123.333L56.3335 148L118.333 205.667H118.667ZM118.667 472.333L233.333 358L208.667 333.333L118.333 423.333L81.0002 390L56.3335 414.667L118.333 472.333H118.667Z" fill="#F39346"/>
</svg>
