<svg width="800" height="800" viewBox="0 0 800 800" fill="none" xmlns="http://www.w3.org/2000/svg">
<g clip-path="url(#clip0_28_88)">
<path d="M533.861 539.143H509.401V685.45H533.861V539.143Z" fill="#F39346"/>
<path d="M186.959 175.761L235.92 135.744V94.3875H186.959V175.761Z" fill="#F39346"/>
<path d="M784.41 290.528L693.5 222.738C690.024 218.562 685.607 215.254 680.59 213.117L403.874 6.7963C403.098 6.20698 402.303 5.69977 401.469 5.21627C400.489 4.60324 399.522 4.02304 398.597 3.57969C397.678 3.11991 396.745 2.72764 395.667 2.32443C394.574 1.90296 393.487 1.51069 392.213 1.16039C391.29 0.926851 390.398 0.735277 388.891 0.470723C387.836 0.284623 386.778 0.14961 385.858 0.0784539C385.169 0.0310167 384.474 0 383.789 0L382.602 0.00912255C381.432 0.0291922 380.283 0.085752 379.038 0.233537C378.128 0.353955 377.228 0.52181 376.389 0.704261C375.163 0.963341 373.937 1.24432 372.755 1.63841C371.859 1.91938 370.987 2.26604 369.516 2.90279C368.555 3.31331 367.611 3.75484 366.467 4.38247C365.604 4.87691 364.762 5.43704 364.346 5.74721L362.621 6.83461L283.888 71.1905C280.101 56.3555 266.625 45.3409 250.622 45.3409H172.239C153.314 45.3409 137.913 60.7361 137.913 79.6654V190.499L14.401 291.471C7.29818 297.275 2.88469 305.492 1.96514 314.615C1.04194 323.734 3.74221 332.67 9.52773 339.753C16.0686 347.773 25.7567 352.375 36.1236 352.375C44.0219 352.375 51.7268 349.616 57.8353 344.626L91.9372 316.76V611.836C91.9372 630.764 107.338 646.163 126.262 646.163C145.193 646.163 160.588 630.764 160.588 611.836V260.655L240.392 195.432V377.599C240.392 412.491 263.722 443.389 303.256 461.402V499.914H295.242C274.727 499.914 258.044 516.601 258.044 537.114V563.031C258.044 565.654 258.321 568.242 258.887 570.787C258.307 573.365 258.035 575.979 258.044 578.594L258.035 604.52C258.035 607.144 258.321 609.751 258.887 612.315C258.321 614.845 258.044 617.441 258.044 620.056L258.035 646.011C258.035 648.633 258.307 651.239 258.878 653.787C258.309 656.336 258.035 658.942 258.035 661.563V687.501C258.035 707.997 274.718 724.701 295.235 724.701H303.256V727.248C303.256 767.36 335.876 800.002 375.97 800.002H376.011C416.122 800.002 448.762 767.36 448.762 727.248V724.701H477.523C482.763 724.701 487.837 723.63 492.475 721.581C497.091 723.61 502.147 724.701 507.398 724.701H535.948C556.444 724.701 573.099 708.017 573.099 687.501V537.114C573.099 516.601 556.424 499.914 535.919 499.914H514.716V495.488C514.716 494.838 514.692 494.185 514.665 493.517C515.019 482.263 510.193 471.315 501.516 463.942L478.299 444.345C500.786 426.492 513.247 403.142 513.247 377.599V190.639C513.247 174.414 500.051 161.217 483.824 161.217H282.252L384.278 77.8336L632.758 263.098V611.855C632.758 630.782 648.161 646.181 667.085 646.181C686.017 646.181 701.411 630.782 701.411 611.855V314.272L743.387 345.566C749.364 350.019 756.453 352.366 763.884 352.366C774.696 352.366 784.973 347.195 791.421 338.554C802.733 323.392 799.591 301.843 784.41 290.528ZM483.816 180.831C489.241 180.831 493.623 185.226 493.623 190.638V377.597C493.623 403.656 475.59 427.182 445.144 442.007L488.866 478.926C493.192 482.605 495.453 488.133 495.013 493.714C495.072 494.3 495.101 494.884 495.101 495.466V524.546C498.272 521.443 502.598 519.509 507.371 519.509L535.913 519.529C545.612 519.529 553.487 527.402 553.487 537.094V687.481C553.487 697.174 545.614 705.069 535.952 705.069C535.932 705.069 535.886 705.069 535.866 705.069H507.4C501.069 705.069 495.573 701.677 492.468 696.66C491.757 697.827 490.954 698.919 489.967 699.915C486.655 703.239 482.24 705.069 477.525 705.069H438.574C435.186 705.069 431.947 704.08 429.148 702.29V727.231C429.148 756.538 405.311 780.368 376.013 780.368H375.971C346.697 780.368 322.873 756.522 322.873 727.231V705.071H295.237C285.549 705.071 277.652 697.178 277.652 687.482V661.547C277.652 658.741 278.371 656.126 279.544 653.771C278.371 651.416 277.652 648.792 277.652 645.993L277.661 620.058C277.661 617.239 278.38 614.633 279.542 612.278C278.378 609.923 277.65 607.299 277.65 604.502L277.659 578.574C277.65 575.817 278.349 573.182 279.541 570.767C278.377 568.422 277.659 565.806 277.659 563.011V537.074C277.659 527.384 285.556 519.491 295.242 519.491H322.871V446.797H321.05C319.8 446.797 318.565 446.565 317.41 446.105C281.465 431.739 259.998 406.121 259.998 377.569V190.639C259.998 185.226 264.379 180.833 269.805 180.833L483.816 180.831ZM775.698 326.846C772.811 330.72 768.378 332.769 763.895 332.769C760.839 332.769 757.755 331.816 755.115 329.851L681.797 275.196V611.853C681.797 619.987 675.207 626.564 667.086 626.564C658.966 626.564 652.375 619.987 652.375 611.853V253.246L383.727 52.9418L140.975 251.346V611.836C140.975 619.97 134.384 626.546 126.264 626.546C118.143 626.546 111.552 619.97 111.552 611.836V275.404L45.4341 329.443C42.7046 331.679 39.4095 332.76 36.1327 332.76C31.867 332.76 27.6415 330.911 24.735 327.353C19.5972 321.055 20.5222 311.8 26.8186 306.653L157.548 199.8V79.6763C157.548 71.5445 164.142 64.9671 172.259 64.9671H250.642C258.765 64.9671 265.353 71.5463 265.353 79.6763V111.7L374.01 22.8921C374.302 22.6476 374.638 22.4798 374.959 22.2645C375.362 21.9872 375.754 21.6952 376.176 21.4508C376.639 21.1972 377.119 21.0111 377.588 20.8049C377.991 20.637 378.374 20.4491 378.776 20.3196C379.299 20.159 379.805 20.0477 380.328 19.9364C380.73 19.8507 381.133 19.7558 381.545 19.7011C382.052 19.6445 382.565 19.6354 383.072 19.6244C383.514 19.6244 383.944 19.6062 384.39 19.6335C384.879 19.6627 385.357 19.7631 385.84 19.8397C386.291 19.9163 386.73 19.9893 387.181 20.1024C387.674 20.2429 388.143 20.429 388.612 20.617C389.024 20.7739 389.436 20.918 389.828 21.1132C390.33 21.3632 390.801 21.6733 391.261 21.9762C391.538 22.1532 391.841 22.2827 392.104 22.478L671.128 230.512C674.625 231.523 677.592 233.751 679.509 236.754L772.698 306.259C779.21 311.115 780.549 320.333 775.698 326.846Z" fill="#F39346"/>
<path d="M322.98 427.22H332.676C338.104 427.22 342.483 431.608 342.483 437.028V519.529H359.97L346.644 503.727C340.395 496.351 341.319 485.239 348.702 478.957L405.098 431.338C406.027 430.551 407.05 429.893 408.121 429.307C408.382 429.174 408.679 429.099 408.946 428.964C409.78 428.581 410.613 428.207 411.493 427.946C411.81 427.86 412.124 427.833 412.449 427.756C413.312 427.545 414.173 427.373 415.065 427.296C415.468 427.276 415.862 427.296 416.26 427.296C416.884 427.296 417.525 427.24 418.149 427.296C418.543 427.258 418.942 427.22 419.344 427.22H430.657C457.447 416.014 474.015 397.121 474.015 377.608V351.14H279.632V377.608C279.623 397.112 296.178 416.005 322.98 427.22Z" fill="#F39346"/>
<path d="M366.995 561.009V539.124L297.266 539.143V561.009H332.132H366.995Z" fill="#F39346"/>
<path d="M366.995 643.97V622.103H332.132L297.266 622.123L297.255 643.979H332.123L366.995 643.97Z" fill="#F39346"/>
<path d="M367.004 663.587L332.678 663.594H297.255V685.47L366.995 685.452L367.004 663.587Z" fill="#F39346"/>
<path d="M384.789 527.763C384.568 527.862 384.388 528.051 384.167 528.146C384.295 528.358 384.333 528.588 384.444 528.799C384.961 529.755 385.384 530.752 385.709 531.786C385.836 532.169 385.953 532.534 386.052 532.926C386.384 534.297 386.608 535.694 386.608 537.13V563.029C386.608 564.35 386.435 565.625 386.167 566.862C386.079 567.255 385.933 567.616 385.816 567.999C385.568 568.833 385.294 569.646 384.93 570.424C384.873 570.548 384.853 570.69 384.785 570.827C384.853 570.951 384.871 571.112 384.939 571.239C385.294 571.995 385.557 572.799 385.805 573.624C385.92 574.027 386.07 574.392 386.165 574.795C386.433 576.019 386.606 577.284 386.606 578.605V604.542C386.606 605.827 386.444 607.073 386.176 608.295C386.099 608.698 385.949 609.063 385.844 609.428C385.61 610.251 385.331 611.076 384.968 611.858C384.9 612.013 384.873 612.176 384.794 612.338C384.864 612.455 384.882 612.606 384.939 612.741C385.304 613.508 385.557 614.332 385.814 615.137C385.929 615.517 386.077 615.881 386.165 616.275C386.433 617.502 386.606 618.775 386.606 620.098V646.035C386.606 647.329 386.433 648.589 386.165 649.826C386.077 650.21 385.949 650.554 385.833 650.928C385.594 651.762 385.311 652.572 384.948 653.37C384.891 653.501 384.862 653.658 384.794 653.8C384.864 653.942 384.891 654.098 384.957 654.249C385.302 654.997 385.557 655.762 385.791 656.548C385.92 656.969 386.077 657.353 386.174 657.776C386.442 659.002 386.615 660.263 386.615 661.576L386.606 687.523C386.606 697.207 378.713 705.091 369.022 705.091H342.48V727.251C342.48 745.746 357.5 760.773 375.966 760.773V770.582L375.995 760.773C394.495 760.773 409.529 745.739 409.529 727.251L409.542 507.58L388.148 525.645C387.123 526.502 385.973 527.17 384.789 527.763ZM389.918 727.228C389.918 734.907 383.669 741.134 375.997 741.134H375.968C368.328 741.134 362.099 734.907 362.099 727.228V724.679H369.023C376.763 724.679 383.95 722.305 389.916 718.246L389.918 727.228Z" fill="#F39346"/>
<path d="M474.011 200.446H279.623V331.51H474.011V200.446Z" fill="#F39346"/>
<path d="M420.424 447.036C419.322 447.196 418.097 447.178 416.946 446.998L362.93 492.616L377.033 509.317L412.436 479.406C413.345 478.651 414.361 478.065 415.443 477.686C415.709 477.576 416.025 477.596 416.315 477.52C417.118 477.321 417.922 477.1 418.747 477.1C418.756 477.1 418.767 477.1 418.776 477.1C419.458 477.1 420.126 477.312 420.798 477.443C421.21 477.54 421.628 477.52 422.022 477.653C423.076 478.016 424.093 478.585 425.001 479.33L437.109 489.551C439.311 491.408 440.575 494.148 440.575 497.04L440.584 685.468L475.467 685.45V495.467C475.254 494.55 475.206 493.9 475.274 493.15L420.624 447.007C420.566 447.016 420.491 447.025 420.424 447.036Z" fill="#F39346"/>
<path d="M366.995 602.488V580.625H332.132H297.266L297.255 602.508L332.209 602.488H366.995Z" fill="#F39346"/>
</g>
<defs>
<clipPath id="clip0_28_88">
<rect width="800" height="800" fill="white"/>
</clipPath>
</defs>
</svg>
