<svg width="800" height="800" viewBox="0 0 800 800" fill="none" xmlns="http://www.w3.org/2000/svg">
<g clip-path="url(#clip0_28_137)">
<path d="M16.539 767.32H16.3249C7.30778 767.32 0 774.628 0 783.644C0 792.659 7.30778 799.969 16.3249 799.969H16.539C25.5546 799.969 32.8639 792.661 32.8639 783.644C32.8624 774.628 25.5546 767.32 16.539 767.32Z" fill="#F39346"/>
<path d="M783.591 767.319H783.377C774.361 767.319 767.052 774.627 767.052 783.644C767.052 792.661 774.36 799.969 783.377 799.969H783.591C792.606 799.969 799.916 792.661 799.916 783.644C799.916 774.627 792.606 767.319 783.591 767.319Z" fill="#F39346"/>
<path d="M459.498 331.45C449.436 331.45 441.25 339.636 441.25 349.699C441.25 359.759 449.436 367.945 459.498 367.945C469.559 367.945 477.745 359.759 477.747 349.699C477.745 339.636 469.561 331.45 459.498 331.45Z" fill="#F39346"/>
<path d="M340.427 331.45C330.364 331.45 322.178 339.636 322.178 349.699C322.178 359.759 330.364 367.945 340.427 367.945C350.489 367.945 358.675 359.759 358.675 349.699C358.675 339.636 350.489 331.45 340.427 331.45Z" fill="#F39346"/>
<path d="M415.983 408.366H384.078C375.063 408.366 367.753 415.674 367.753 424.691C367.753 442.487 382.233 456.967 400.03 456.967C417.827 456.967 432.306 442.487 432.306 424.691C432.308 415.675 424.999 408.366 415.983 408.366Z" fill="#F39346"/>
<path d="M755.918 543.009V390.039C770.371 377.72 778.772 359.761 778.772 340.417C778.772 320.681 769.978 302.21 754.644 289.741C749.969 285.939 743.575 285.025 738.019 287.358C732.463 289.692 728.644 294.9 728.09 300.903C727.388 308.489 721.104 314.209 713.474 314.209C705.844 314.209 699.56 308.489 698.858 300.903C698.302 294.902 694.485 289.696 688.929 287.358C683.371 285.022 676.98 285.938 672.304 289.741C656.969 302.21 648.176 320.681 648.176 340.417C648.176 359.762 656.576 377.72 671.03 390.039V543.009C656.577 555.326 648.176 573.285 648.176 592.63C648.176 612.366 656.969 630.838 672.304 643.307C676.982 647.11 683.372 648.025 688.929 645.689C694.485 643.355 698.304 638.147 698.858 632.144C699.56 624.56 705.844 618.84 713.474 618.84C721.104 618.84 727.388 624.56 728.09 632.144C728.646 638.146 732.463 643.352 738.019 645.689C740.058 646.544 742.207 646.964 744.343 646.964C748.033 646.964 751.682 645.714 754.644 643.307C769.978 630.839 778.772 612.368 778.772 592.63C778.772 573.285 770.371 555.327 755.918 543.009ZM730.874 565.012C740.424 571.046 746.124 581.371 746.124 592.63C746.124 594.665 745.938 596.671 745.574 598.63C737.132 590.866 725.854 586.193 713.474 586.193C701.096 586.193 689.818 590.866 681.374 598.63C681.012 596.671 680.824 594.665 680.824 592.63C680.824 581.371 686.524 571.046 696.074 565.012C700.808 562.019 703.679 556.81 703.679 551.21V381.834C703.679 376.233 700.807 371.026 696.074 368.033C686.526 361.998 680.824 351.673 680.824 340.414C680.824 338.38 681.01 336.373 681.374 334.414C689.816 342.178 701.094 346.852 713.474 346.852C725.854 346.852 737.132 342.178 745.574 334.414C745.936 336.373 746.124 338.38 746.124 340.414C746.124 351.673 740.424 361.997 730.874 368.033C726.139 371.025 723.269 376.234 723.269 381.834V551.21C723.269 556.812 726.139 562.019 730.874 565.012Z" fill="#F39346"/>
<path d="M96.4826 19.6434C90.6467 15.2106 82.5717 15.2106 76.7358 19.6434C74.4733 21.3606 21.311 62.3073 21.311 112.217C21.311 149.349 48.7719 176.299 86.6092 176.299C124.447 176.299 151.907 149.349 151.907 112.217C151.907 62.3073 98.7451 21.3622 96.4826 19.6434ZM86.6092 143.651C70.3577 143.651 53.9593 133.931 53.9593 112.218C53.9593 90.3447 72.7937 67.4448 86.6342 54.1996C100.475 67.3948 119.258 90.2182 119.258 112.218C119.258 133.931 102.861 143.651 86.6092 143.651Z" fill="#F39346"/>
<path d="M150.899 485.617H150.687C141.671 485.617 134.362 492.924 134.362 501.942C134.362 510.959 141.67 518.267 150.687 518.267H150.901C159.916 518.267 167.226 510.959 167.226 501.942C167.226 492.924 159.915 485.617 150.899 485.617Z" fill="#F39346"/>
<path d="M796.848 129.915L782.605 110.459C782.636 109.54 782.65 108.629 782.65 107.726C782.65 106.85 782.636 105.965 782.606 105.073L796.847 85.6186C800.087 81.1936 800.887 75.439 798.981 70.2984C794.755 58.9031 788.664 48.3703 780.878 38.9922C777.38 34.7766 772.005 32.6016 766.553 33.1907L742.664 35.7876C741.114 34.8251 739.531 33.911 737.922 33.0469L728.23 11.0689C726.016 6.04705 721.425 2.47519 716.016 1.55956C703.961 -0.47949 691.931 -0.47949 679.878 1.55956C674.469 2.47362 669.878 6.04705 667.664 11.0689L657.972 33.0469C656.363 33.911 654.78 34.8251 653.23 35.7876L629.34 33.1907C623.893 32.5938 618.511 34.7782 615.013 38.9938C607.229 48.3719 601.138 58.9047 596.912 70.2984C595.005 75.439 595.807 81.1952 599.046 85.6186L613.286 105.073C613.258 105.962 613.244 106.848 613.244 107.726C613.244 108.629 613.258 109.54 613.29 110.459L599.046 129.915C595.805 134.34 595.005 140.095 596.912 145.236C601.138 156.629 607.229 167.16 615.013 176.54C618.511 180.756 623.883 182.932 629.34 182.343L653.344 179.732C654.841 180.659 656.371 181.543 657.925 182.378L667.663 204.463C669.877 209.485 674.466 213.057 679.877 213.973C685.905 214.992 691.986 215.509 697.946 215.509C703.903 215.509 709.983 214.992 716.019 213.973C721.431 213.059 726.019 209.485 728.233 204.463L737.97 182.378C739.525 181.543 741.055 180.66 742.552 179.732L766.556 182.343C771.998 182.939 777.383 180.756 780.881 176.542C788.667 167.164 794.758 156.631 798.984 145.236C800.887 140.095 800.087 134.339 796.848 129.915ZM749.677 102.001C749.889 103.954 749.997 105.878 749.997 107.72C749.997 109.578 749.888 111.519 749.67 113.49C749.225 117.547 750.316 121.623 752.727 124.915L764.972 141.645C763.714 144.129 762.32 146.539 760.791 148.87L740.147 146.625C736.086 146.184 732.009 147.281 728.716 149.698C725.663 151.942 722.347 153.856 718.861 155.389C715.127 157.032 712.141 160.014 710.495 163.746L702.124 182.734C699.319 182.895 696.569 182.895 693.764 182.734L685.391 163.746C683.746 160.014 680.76 157.031 677.025 155.389C673.538 153.856 670.222 151.942 667.171 149.698C663.88 147.279 659.808 146.184 655.739 146.625L635.096 148.87C633.568 146.539 632.172 144.128 630.915 141.645L643.16 124.915C645.571 121.622 646.661 117.545 646.216 113.49C645.999 111.519 645.889 109.578 645.889 107.72C645.889 105.873 645.997 103.951 646.21 102.006C646.65 97.9545 645.56 93.8842 643.152 90.5952L630.915 73.878C632.172 71.3952 633.568 68.9843 635.096 66.6531L655.641 68.8874C659.714 69.3296 663.8 68.2265 667.094 65.7968C670.178 63.5234 673.532 61.5859 677.06 60.0359C680.8 58.3937 683.789 55.4094 685.436 51.6734L693.763 32.7891C696.569 32.6282 699.317 32.6282 702.124 32.7891L710.45 51.6734C712.097 55.4125 715.086 58.3953 718.827 60.0359C722.356 61.5828 725.709 63.5234 728.792 65.7968C732.086 68.2265 736.172 69.3296 740.245 68.8874L760.791 66.6531C762.319 68.9843 763.714 71.3952 764.972 73.878L752.734 90.5952C750.325 93.8826 749.236 97.9514 749.677 102.001Z" fill="#F39346"/>
<path d="M697.944 62.9126C673.235 62.9126 653.133 83.0141 653.133 107.723C653.133 132.433 673.235 152.534 697.944 152.534C722.653 152.534 742.755 132.433 742.755 107.723C742.755 83.0141 722.652 62.9126 697.944 62.9126ZM697.944 119.886C691.238 119.886 685.782 114.43 685.782 107.723C685.782 101.017 691.238 95.5609 697.944 95.5609C704.649 95.5609 710.107 101.017 710.107 107.723C710.107 114.43 704.65 119.886 697.944 119.886Z" fill="#F39346"/>
<path d="M730.563 767.321H639.996V656.941C639.996 625.121 620.791 594.896 593.296 583.44L488.234 539.665C484.499 538.109 482.084 534.489 482.084 530.44V505.02L524.756 480.553C525.052 480.383 525.345 480.201 525.632 480.012C546.998 465.903 561.029 440.809 563.162 412.888C563.194 412.475 563.209 412.058 563.209 411.644V398.091C584.408 391.195 599.774 371.247 599.774 347.777C599.774 324.307 584.408 304.358 563.209 297.463V282.361C574.34 273.869 580.507 260.432 579.504 246.255L577.004 193.434C577.004 193.027 576.988 192.62 576.957 192.21L571.655 123.373C568.996 89.0732 544.67 60.9655 511.118 53.4311L404.32 29.4406C401.833 28.8047 399.184 28.7593 396.67 29.325L289.397 53.4327C255.827 60.9733 231.499 89.0841 228.858 123.382L223.558 192.213C223.547 192.374 223.535 192.535 223.529 192.695L220.994 246.252C220 260.188 225.936 273.415 236.713 281.93V297.466C215.513 304.361 200.147 324.31 200.147 347.78C200.147 371.25 215.515 391.199 236.713 398.094V411.647C236.713 412.061 236.729 412.478 236.76 412.891C238.904 440.926 252.835 466.019 274.027 480.015C274.319 480.208 274.617 480.39 274.922 480.565L317.838 505.1V530.442C317.838 534.489 315.424 538.109 311.688 539.667L206.624 583.443C179.129 594.901 159.926 625.124 159.926 656.943V767.322H142.985V607.309C189.873 600.068 226.78 562.179 232.486 514.809C244.741 508.976 253.232 496.468 253.232 482.015C253.232 462.003 236.949 445.722 216.938 445.722H36.3825C16.3701 445.722 0.0888672 462.005 0.0888672 482.017C0.0888672 496.468 8.5779 508.975 20.8341 514.806C26.5356 562.181 63.4464 600.068 110.337 607.307V767.316H69.3495C60.3339 767.316 53.0246 774.624 53.0246 783.641C53.0246 792.658 60.3324 799.966 69.3495 799.966H730.563C739.578 799.966 746.888 792.658 746.888 783.641C746.888 774.624 739.58 767.321 730.563 767.321ZM54.5449 518.267H97.8729C106.888 518.267 114.198 510.959 114.198 501.942C114.198 492.925 106.89 485.617 97.8729 485.617H37.7372C37.3575 485.617 36.984 485.648 36.609 485.675C36.5325 485.673 36.459 485.664 36.3825 485.664C34.4075 485.664 32.7387 483.995 32.7387 482.019C32.7387 480.044 34.4075 478.375 36.3825 478.375H216.941C218.916 478.375 220.585 480.044 220.585 482.02C220.585 483.995 218.916 485.664 216.93 485.664C207.915 485.664 200.605 492.972 200.605 501.989C200.605 542.76 167.434 575.932 126.662 575.932C91.4823 575.932 61.9824 551.231 54.5449 518.267ZM261.413 125.886C262.946 105.976 277.066 89.6607 296.555 85.2841L400.237 61.9842L503.962 85.2841C523.435 89.6591 537.559 105.978 539.101 125.887L543.259 179.865C498.32 160.557 449.425 150.41 400.248 150.41C351.078 150.41 302.191 160.556 257.255 179.857L261.413 125.886ZM253.599 248.01L255.079 216.754C299.958 194.692 349.944 183.059 400.25 183.059C450.556 183.059 500.542 194.692 545.423 216.754L546.902 248.008C546.909 248.169 546.92 248.332 546.934 248.491C547.323 253.533 544.016 256.118 542.576 256.996C541.151 257.863 537.376 259.601 533.138 256.985C493.281 232.34 447.329 219.315 400.251 219.315C353.173 219.315 307.222 232.343 267.375 256.98C263.119 259.605 259.343 257.866 257.913 256.994C256.477 256.118 253.175 253.535 253.568 248.507C253.58 248.341 253.589 248.177 253.599 248.01ZM291.624 452.5C279.149 444.053 270.869 428.608 269.366 410.986V384.342C269.366 375.327 262.058 368.017 253.041 368.017C241.88 368.017 232.8 358.936 232.8 347.777C232.8 336.618 241.882 327.536 253.041 327.536C262.057 327.536 269.366 320.229 269.366 311.211V290.432C274.638 289.561 279.791 287.685 284.533 284.757C354.83 241.294 445.671 241.293 515.979 284.763C520.543 287.58 525.491 289.421 530.56 290.33V311.21C530.56 320.225 537.868 327.535 546.885 327.535C558.046 327.535 567.126 336.616 567.126 347.775C567.126 358.935 558.044 368.016 546.885 368.016C537.87 368.016 530.56 375.324 530.56 384.341V410.981C529.077 428.245 520.495 444.064 508.031 452.503L420.386 502.759C420.087 502.931 419.797 503.111 419.509 503.3C407.273 511.384 392.661 511.384 380.42 503.3C380.128 503.106 379.831 502.923 379.525 502.75L291.624 452.5ZM449.436 523.739V589.077C449.436 616.232 427.278 638.324 400.042 638.324C372.719 638.324 350.491 616.232 350.491 589.077V523.759L362.894 530.851C374.351 538.293 387.158 542.014 399.964 542.014C412.773 542.014 425.583 538.29 437.042 530.845L449.436 523.739ZM192.579 767.321V656.941C192.579 638.541 204.018 619.899 219.186 613.577L226.796 610.407C230.16 617.637 231.915 625.495 231.915 633.618V767.321H192.579ZM488.195 767.321H312.303V729.774H488.195V767.321ZM535.36 633.616V767.321H520.845V713.449C520.845 704.433 513.537 697.124 504.52 697.124H295.978C286.963 697.124 279.653 704.432 279.653 713.449V767.321H264.564V633.616C264.564 621.112 261.961 609.013 256.957 597.84L317.839 572.473V589.081C317.839 634.238 354.716 670.977 400.04 670.977C445.279 670.977 482.084 634.238 482.084 589.081V572.473L542.966 597.84C537.963 609.013 535.36 621.112 535.36 633.616ZM607.347 767.321H607.346H568.009V633.616C568.009 625.493 569.763 617.638 573.129 610.406L580.74 613.576C595.908 619.896 607.347 638.538 607.347 656.94V767.321Z" fill="#F39346"/>
</g>
<defs>
<clipPath id="clip0_28_137">
<rect width="800" height="800" fill="white"/>
</clipPath>
</defs>
</svg>
