<svg width="800" height="800" viewBox="0 0 800 800" fill="none" xmlns="http://www.w3.org/2000/svg">
<path d="M777.639 49.6891H766.873V12.4219C766.873 5.56094 761.312 0 754.451 0H658.386C651.523 0 645.964 5.5625 645.964 12.4219V49.6891H631.886C625.023 49.6891 619.464 55.2516 619.464 62.1109V101.863C619.464 108.723 625.025 114.284 631.886 114.284H645.964V151.552C645.964 158.412 651.525 163.973 658.386 163.973C665.248 163.973 670.808 158.411 670.808 151.552V114.286H742.029V293.995C742.029 369.342 680.73 430.641 605.384 430.641H511.803V356.106H608.697C642.945 356.106 670.809 328.244 670.809 293.994V217.803C670.809 210.942 665.248 205.381 658.387 205.381C651.525 205.381 645.965 210.944 645.965 217.803V293.994C645.965 314.544 629.247 331.261 608.698 331.261H511.804V313.87C511.804 307.009 506.244 301.448 499.383 301.448H459.631C452.769 301.448 447.209 307.011 447.209 313.87V331.261H419.047V243.477H432.376C437.8 262.57 455.381 276.603 476.189 276.603C501.303 276.603 521.737 256.17 521.737 231.055C521.737 205.939 501.303 185.506 476.189 185.506C455.381 185.506 437.798 199.539 432.376 218.633H380.872C375.448 199.539 357.867 185.506 337.059 185.506C311.945 185.506 291.511 205.939 291.511 231.055C291.511 256.17 311.945 276.603 337.059 276.603C357.867 276.603 375.45 262.57 380.872 243.477H394.201V331.261H366.044V313.87C366.044 307.009 360.483 301.448 353.622 301.448H313.87C307.008 301.448 301.448 307.011 301.448 313.87V331.261H197.928C108.881 331.261 36.4373 403.705 36.4373 492.752V549.066C36.4373 555.927 41.9982 561.487 48.8592 561.487C55.7217 561.487 61.2811 555.925 61.2811 549.066V492.752C61.2811 417.405 122.581 356.106 197.926 356.106H301.447V430.641H194.614C160.364 430.641 132.501 458.503 132.501 492.753V682.402H61.2842V615.32C61.2842 608.459 55.7232 602.898 48.8623 602.898C41.9998 602.898 36.4404 608.461 36.4404 615.32V682.402H22.3623C15.4998 682.402 9.94043 687.964 9.94043 694.823V734.575C9.94043 741.436 15.5014 746.997 22.3623 746.997H36.4404V784.264C36.4404 791.125 42.0014 796.686 48.8623 796.686H144.928C151.79 796.686 157.35 791.123 157.35 784.264V746.997H168.115C174.978 746.997 180.537 741.434 180.537 734.575V694.823C180.537 687.963 174.976 682.402 168.115 682.402H157.35V492.753C157.35 472.203 174.069 455.486 194.617 455.486H301.45V472.877C301.45 479.737 307.011 485.298 313.872 485.298H353.623C360.486 485.298 366.045 479.736 366.045 472.877V455.486H447.204V472.877C447.204 479.737 452.765 485.298 459.626 485.298H499.378C506.24 485.298 511.8 479.736 511.8 472.877V455.486H605.381C694.428 455.486 766.872 383.042 766.872 293.995V114.286H777.637C784.5 114.286 790.059 108.723 790.059 101.864V62.1125C790.062 55.2516 784.501 49.6891 777.639 49.6891ZM476.19 210.352C487.608 210.352 496.895 219.639 496.895 231.056C496.895 242.473 487.608 251.759 476.19 251.759C464.773 251.759 455.487 242.472 455.487 231.056C455.487 219.641 464.773 210.352 476.19 210.352ZM337.059 251.759C325.642 251.759 316.354 242.472 316.354 231.056C316.354 219.641 325.642 210.352 337.059 210.352C348.476 210.352 357.762 219.639 357.762 231.056C357.762 242.473 348.476 251.759 337.059 251.759ZM132.504 771.842H61.2842V746.997H132.506L132.504 771.842ZM155.694 722.153H34.7826V707.247H155.694V722.153ZM341.201 460.456H326.295V326.295H341.201V460.456ZM447.204 430.642H366.045V356.108H447.204V430.642ZM486.956 460.456H472.05V326.295H486.956V460.456ZM670.808 24.8453H742.029V49.6906H670.808V24.8453ZM765.217 89.4406H644.306V74.5344H765.217V89.4406Z" fill="#F39346"/>
<path d="M471.306 582.537C467.833 576.619 460.222 574.636 454.306 578.108C448.387 581.58 446.406 589.19 449.876 595.108C485.022 655.014 490.269 681.222 490.269 691.511C490.269 737.633 452.747 775.155 406.625 775.155C360.503 775.155 322.981 737.633 322.981 691.511C322.981 655.786 376.417 571.17 406.597 527.561C411.008 533.95 416.584 542.169 422.74 551.553C426.503 557.29 434.206 558.891 439.94 555.128C445.678 551.367 447.278 543.664 443.515 537.926C428.504 515.039 417.154 499.366 416.679 498.709C411.801 491.984 401.447 491.984 396.567 498.709C386.494 512.601 298.136 636.026 298.136 691.511C298.136 751.333 346.803 800 406.625 800C466.447 800 515.114 751.333 515.114 691.511C515.114 668.43 500.784 632.783 471.306 582.537Z" fill="#F39346"/>
<path d="M437.02 602.653C433.547 596.734 425.937 594.753 420.02 598.223C414.102 601.695 412.12 609.306 415.591 615.223C449.283 672.656 450.484 690.912 450.517 691.509C450.517 715.711 430.827 735.401 406.625 735.401C399.762 735.401 394.203 740.964 394.203 747.823C394.203 754.683 399.764 760.245 406.625 760.245C444.527 760.245 475.363 729.409 475.363 691.508C475.363 685.997 472.598 663.298 437.02 602.653Z" fill="#F39346"/>
</svg>
