<svg width="800" height="800" viewBox="0 0 800 800" fill="none" xmlns="http://www.w3.org/2000/svg">
<g clip-path="url(#clip0_28_180)">
<path d="M786.02 691.066L511.614 416.662L664.661 263.616C678.921 249.358 696.933 238.447 716.746 232.061C732.801 226.901 747.014 218.21 758.993 206.228C779.406 185.817 790.397 158.679 789.945 129.814C789.49 100.944 777.624 74.1366 756.53 54.3271C753.938 51.895 750.278 50.9692 746.851 51.8744C743.419 52.7778 740.692 55.3835 739.636 58.7741L721.636 116.519C716.399 133.302 698.484 142.694 681.691 137.455C668.297 133.275 659.298 121.049 659.298 107.033C659.298 103.829 659.788 100.631 660.755 97.5308L678.567 40.4538C679.63 37.0443 678.854 33.3274 676.514 30.6307C674.175 27.934 670.606 26.6372 667.079 27.2109C647.497 30.3885 629.333 38.932 614.552 51.9207C588.57 74.7687 575.342 108.903 579.167 143.234C583.374 180.939 569.947 218.396 542.326 246.003L441.64 346.687L425.298 330.346L399.941 271.996C399.426 270.811 398.69 269.732 397.775 268.817L269.754 140.793C267.82 138.86 265.199 137.775 262.467 137.775C259.734 137.775 257.113 138.86 255.18 140.793L159.228 236.742L114.867 192.38L212.643 94.6039C216.669 90.5795 216.669 84.0542 212.643 80.0298L168.388 35.775C164.69 32.0752 158.799 31.7334 154.695 34.99L19.0057 142.67C7.90291 151.202 1.0152 164.11 0.103135 178.081C-0.808928 192.054 4.34741 205.745 14.2478 215.647L45.6376 247.035C47.649 249.047 50.2872 250.053 52.9238 250.053C55.5604 250.053 58.1987 249.047 60.21 247.035L67.4979 239.747L111.859 284.109L104.571 291.397C100.545 295.421 100.545 301.946 104.57 305.971L159.223 360.626C163.247 364.65 169.774 364.652 173.797 360.626L189.587 344.836L223.596 378.845L207.808 394.633C203.782 398.658 203.782 405.183 207.806 409.207L217.126 418.527C232.441 433.842 255.258 438.126 274.839 430.087L297.596 452.846C299.53 454.778 302.149 455.864 304.884 455.864C307.618 455.864 310.237 454.778 312.171 452.846L336.462 428.555C340.487 424.53 340.487 418.005 336.462 413.981L324.145 401.662L347.055 388.137L373.62 414.702L252.041 536.283C237.781 550.541 219.768 561.452 199.952 567.838C184.134 572.929 169.527 581.866 157.705 593.686C137.291 614.102 126.301 641.244 126.756 670.113C127.215 698.977 139.082 725.776 160.173 745.573C162.761 748.004 166.422 748.928 169.848 748.026C173.28 747.123 176.008 744.517 177.064 741.13L195.08 683.398C197.617 675.269 203.167 668.615 210.707 664.661C218.25 660.705 226.877 659.925 235.008 662.462C248.403 666.643 257.401 678.869 257.401 692.885C257.401 696.088 256.912 699.287 255.943 702.39L238.148 759.467C237.085 762.879 237.865 766.595 240.208 769.294C242.181 771.566 245.031 772.841 247.987 772.841C248.538 772.841 249.096 772.796 249.65 772.705C269.229 769.503 287.383 760.955 302.146 747.981C328.151 725.133 341.378 691.002 337.534 656.684C333.329 618.999 346.759 581.532 374.376 553.897L443.594 484.679L717.232 758.317C726.942 768.026 739.596 772.927 752.181 772.927C763.768 772.927 775.297 768.772 784.418 760.388C794.179 751.413 799.706 739.172 799.985 725.919C800.266 712.729 795.306 700.353 786.02 691.066ZM556.895 260.577C588.972 228.518 604.556 184.914 599.65 140.947C596.569 113.302 607.227 85.8062 628.159 67.4018C635.598 60.8627 644.114 55.727 653.316 52.1732L641.076 91.3954C639.489 96.4882 638.685 101.749 638.685 107.033C638.685 130.118 653.5 150.25 675.551 157.131C703.196 165.755 732.691 150.29 741.312 122.655L753.842 82.4568C763.651 96.3199 769.06 112.766 769.333 130.138C769.699 153.376 760.852 175.223 744.417 191.655C734.776 201.298 723.344 208.291 710.432 212.442C687.512 219.826 666.646 232.482 650.087 249.042L497.04 402.09L456.212 361.261L556.895 260.577ZM28.8237 201.071C23.1177 195.365 20.1462 187.475 20.6718 179.422C21.1974 171.37 25.1668 163.931 31.6921 158.916L160.312 56.8469L190.781 87.3177L52.9255 225.173L28.8237 201.071ZM82.0738 225.173L100.293 206.954L144.654 251.316L126.435 269.535L82.0738 225.173ZM204.165 330.262L213.883 320.545L247.891 354.552L238.174 364.269L204.165 330.262ZM262.465 339.978L228.457 305.971L246.676 287.752L280.684 321.759L262.465 339.978ZM314.604 421.267L304.889 430.984L293.602 419.695L305.82 412.483L314.604 421.267ZM359.803 539.323C327.731 571.416 312.151 615.023 317.053 658.972C320.15 686.604 309.492 714.089 288.544 732.495C281.111 739.027 272.602 744.163 263.403 747.722L275.625 708.519C277.212 703.426 278.016 698.165 278.016 692.882C278.016 669.797 263.202 649.664 241.151 642.783C213.514 634.164 184.027 649.628 175.408 677.256L162.864 717.451C153.053 703.596 147.644 687.153 147.37 669.785C147 646.543 155.85 624.695 172.282 608.259C181.935 598.606 193.37 591.608 206.271 587.455C229.191 580.071 250.057 567.415 266.616 550.856L388.197 429.275L429.025 470.103L359.803 539.323ZM770.472 745.213C759.79 755.032 742.449 754.375 731.812 743.739L355.985 367.912C353.999 365.927 351.361 364.894 348.695 364.894C346.899 364.894 345.088 365.363 343.458 366.325L271.237 408.962C258.461 416.509 242.204 414.448 231.704 403.953L229.672 401.921L302.544 329.047C306.57 325.023 306.57 318.497 302.544 314.473L253.963 265.89C249.94 261.865 243.411 261.865 239.39 265.89L166.514 338.762L126.435 298.683L262.465 162.653L381.815 282.005L407.172 340.354C407.687 341.541 408.422 342.62 409.338 343.535L771.444 705.642C776.721 710.918 779.54 717.966 779.382 725.486C779.224 733.071 776.058 740.077 770.472 745.213Z" fill="#F39346"/>
<path d="M752.566 738.176C760.155 738.176 766.307 732.023 766.307 724.434C766.307 716.845 760.155 710.693 752.566 710.693C744.977 710.693 738.825 716.845 738.825 724.434C738.825 732.023 744.977 738.176 752.566 738.176Z" fill="#F39346"/>
</g>
<defs>
<clipPath id="clip0_28_180">
<rect width="800" height="800" fill="white"/>
</clipPath>
</defs>
</svg>
