<svg width="32" height="32" viewBox="0 0 32 32" fill="none" xmlns="http://www.w3.org/2000/svg">
<g clip-path="url(#clip0_34_340)">
<path d="M29.9996 31.3601H15.9996C15.8006 31.3601 15.6396 31.1991 15.6396 31.0001V21.0001C15.6396 20.8011 15.8006 20.6401 15.9996 20.6401H19.6396V18.0001C19.6396 17.8011 19.8006 17.6401 19.9996 17.6401H25.9996C26.1986 17.6401 26.3596 17.8011 26.3596 18.0001V20.6401H29.9996C30.1986 20.6401 30.3596 20.8011 30.3596 21.0001V31.0001C30.3596 31.1991 30.1986 31.3601 29.9996 31.3601ZM16.3596 30.6401H29.6396V25.3601H25.3596V26.0001C25.3596 26.1991 25.1986 26.3601 24.9996 26.3601H20.9996C20.8006 26.3601 20.6396 26.1991 20.6396 26.0001V25.3601H16.3596V30.6401ZM21.3596 25.6401H24.6386V24.3601H21.3596V25.6401ZM25.3596 24.6401H29.6386V21.3601H16.3596V24.6391H20.6396V24.0001C20.6396 23.8011 20.8006 23.6401 20.9996 23.6401H24.9996C25.1986 23.6401 25.3596 23.8011 25.3596 24.0001V24.6401ZM20.3596 20.6401H25.6386V18.3601H20.3596V20.6401ZM8.35965 31.0001H7.63965V23.5001C7.63965 19.9081 9.89665 16.7821 13.2256 15.6211C11.8996 14.7141 11.0796 13.2001 11.0796 11.5611C11.0796 9.59711 12.2366 7.89711 13.9056 7.10911C14.1016 6.61711 14.2006 6.09711 14.2006 5.56111C14.2006 3.24511 12.3166 1.36011 9.99965 1.36011C7.68265 1.36011 5.79865 3.24411 5.79865 5.56111C5.79865 7.21611 6.77865 8.72311 8.29465 9.39711C8.43665 9.46011 8.52165 9.60611 8.50665 9.76011C8.49265 9.91311 8.38165 10.0411 8.23165 10.0761C4.77365 10.8961 2.35965 13.9491 2.35965 17.5001V25.0001H1.63965V17.5001C1.63965 13.9081 3.89665 10.7821 7.22465 9.62111C5.89865 8.71411 5.07965 7.20011 5.07965 5.56111C5.07965 2.84811 7.28665 0.641113 9.99965 0.641113C12.7126 0.641113 14.9196 2.84811 14.9196 5.56111C14.9196 5.98311 14.8676 6.39611 14.7626 6.79811C15.5526 6.59311 16.4456 6.59311 17.2356 6.79811C17.1316 6.39711 17.0786 5.98311 17.0786 5.56111C17.0786 2.84811 19.2866 0.641113 21.9996 0.641113C24.7126 0.641113 26.9206 2.84811 26.9206 5.56111C26.9206 7.20011 26.1006 8.71511 24.7746 9.62211C28.1036 10.7841 30.3606 13.9131 30.3606 17.5091V18.0001H29.6396V17.5081C29.6396 13.9521 27.2256 10.8961 23.7686 10.0761C23.6186 10.0401 23.5076 9.91311 23.4936 9.76011C23.4786 9.60611 23.5646 9.46011 23.7056 9.39811C25.2206 8.72211 26.1996 7.21611 26.1996 5.56111C26.1996 3.24511 24.3156 1.36011 21.9996 1.36011C19.6836 1.36011 17.7996 3.24411 17.7996 5.56111C17.7996 6.09711 17.8986 6.61711 18.0946 7.10911C19.7636 7.89811 20.9206 9.59711 20.9206 11.5611C20.9206 12.4981 20.6556 13.4091 20.1546 14.1941C19.6326 15.0151 18.8856 15.6591 17.9976 16.0551L17.7046 15.3981C18.4646 15.0601 19.1006 14.5101 19.5476 13.8081C19.9746 13.1371 20.1996 12.3611 20.1996 11.5611C20.1996 9.24511 18.3156 7.36011 15.9996 7.36011C13.6836 7.36011 11.7996 9.24411 11.7996 11.5611C11.7996 13.2171 12.7796 14.7231 14.2956 15.3971C14.4366 15.4601 14.5216 15.6061 14.5076 15.7601C14.4936 15.9131 14.3826 16.0411 14.2326 16.0761C10.7746 16.8961 8.35965 19.9481 8.35965 23.5001V31.0001Z" fill="#F39346"/>
</g>
<defs>
<clipPath id="clip0_34_340">
<rect width="32" height="32" fill="white"/>
</clipPath>
</defs>
</svg>
