<svg width="800" height="800" viewBox="0 0 800 800" fill="none" xmlns="http://www.w3.org/2000/svg">
<g clip-path="url(#clip0_20_15)">
<path d="M731.219 712.133L625.307 456.443C622.609 449.93 615.142 446.834 608.628 449.534C602.114 452.233 599.02 459.7 601.719 466.213L697.466 697.363L610.131 672.058C604.398 670.395 598.276 672.931 595.397 678.162L551.535 757.809L448.8 509.782C567.375 486.916 657.22 382.373 657.22 257.224C657.222 115.391 541.833 0 400 0C258.167 0 142.776 115.391 142.776 257.224C142.776 314.672 161.711 367.779 193.663 410.642L68.7813 712.133C66.9038 716.667 67.7906 721.876 71.0638 725.532C74.3353 729.188 79.4162 730.645 84.1293 729.28L187.164 699.423L238.909 793.392C241.163 797.483 245.457 800 250.089 800C250.323 800 250.56 799.993 250.797 799.981C255.697 799.709 260.007 796.654 261.886 792.119L360.841 553.22C363.539 546.706 360.446 539.239 353.932 536.541C347.418 533.843 339.951 536.936 337.253 543.45L248.461 757.809L204.603 678.162C201.723 672.931 195.597 670.395 189.867 672.058L102.534 697.363L212.146 432.735C259.122 482.982 325.951 514.446 400 514.446C407.644 514.446 415.205 514.09 422.681 513.435L538.116 792.119C539.993 796.654 544.305 799.709 549.203 799.98C549.442 799.993 549.677 800 549.913 800C554.545 800 558.839 797.483 561.091 793.392L612.837 699.423L715.872 729.28C720.589 730.647 725.665 729.188 728.938 725.532C732.211 721.876 733.096 716.667 731.219 712.133ZM168.308 257.224C168.308 129.469 272.245 25.5319 400 25.5319C527.755 25.5319 631.69 129.469 631.69 257.224C631.69 384.979 527.755 488.914 400 488.914C272.245 488.914 168.308 384.979 168.308 257.224Z" fill="#F39346"/>
<path d="M547.505 209.295C546.036 204.771 542.168 201.438 537.476 200.65L451.574 186.235L411.321 108.994C409.122 104.774 404.759 102.128 400 102.128C395.243 102.128 390.878 104.774 388.679 108.994L348.424 186.235L262.524 200.65C257.831 201.437 253.966 204.769 252.495 209.295C251.025 213.821 252.192 218.788 255.527 222.184L316.548 284.337L303.714 370.489C303.013 375.195 304.987 379.9 308.837 382.698C312.684 385.493 317.772 385.917 322.031 383.797L400 344.969L477.968 383.797C479.77 384.694 481.717 385.137 483.658 385.137C486.308 385.137 488.941 384.313 491.163 382.7C495.013 379.901 496.987 375.197 496.286 370.49L483.454 284.339L544.475 222.184C547.808 218.788 548.975 213.821 547.505 209.295ZM460.78 270.987C457.974 273.845 456.672 277.852 457.263 281.811L467.425 350.022L405.692 319.28C403.898 318.388 401.951 317.94 400 317.94C398.051 317.94 396.1 318.386 394.31 319.28L332.577 350.022L342.739 281.811C343.329 277.852 342.027 273.843 339.222 270.987L290.907 221.775L358.919 210.361C362.868 209.699 366.277 207.222 368.128 203.671L400 142.516L431.872 203.673C433.724 207.224 437.132 209.7 441.081 210.363L509.094 221.777L460.78 270.987Z" fill="#F39346"/>
<path d="M593.382 270.1C586.392 269.166 579.975 274.089 579.05 281.079C567.209 370.453 490.233 437.852 400 437.852C300.402 437.852 219.372 356.824 219.372 257.224C219.372 157.624 300.402 76.5958 400 76.5958C490.235 76.5958 567.209 143.993 579.05 233.369C579.975 240.359 586.404 245.285 593.382 244.347C600.369 243.421 605.287 237.004 604.359 230.015C590.844 127.997 502.989 51.0638 400 51.0638C286.323 51.0638 193.84 143.546 193.84 257.224C193.84 370.902 286.323 463.382 400 463.382C502.989 463.382 590.844 386.449 604.361 284.431C605.287 277.443 600.371 271.026 593.382 270.1Z" fill="#F39346"/>
</g>
<defs>
<clipPath id="clip0_20_15">
<rect width="800" height="800" fill="white"/>
</clipPath>
</defs>
</svg>
