<svg width="800" height="800" viewBox="0 0 800 800" fill="none" xmlns="http://www.w3.org/2000/svg">
<path d="M621.743 154.691L699.993 76.4414V123.582L645.317 178.261L621.743 154.691Z" fill="#F39346"/>
<path d="M286.913 367.083H133.333V100.418H286.913V146.747H189.877V205.297H280.164V251.626H189.877V320.391H286.913V367.083Z" fill="#F39346"/>
<path d="M633.333 533.333L733.333 633.333L633.333 733.333V666.667H133.333V600H633.333V533.333Z" fill="#F39346"/>
<path d="M700 400.367V500.367H666.667V400.367H700Z" fill="#F39346"/>
<path d="M700 333.282V233.282H666.667V333.282H700Z" fill="#F39346"/>
<path d="M480.33 343.257L409.62 413.967L386.05 390.397L456.76 319.686L480.33 343.257Z" fill="#F39346"/>
<path d="M527.477 296.114L598.187 225.403L574.617 201.833L503.903 272.543L527.477 296.114Z" fill="#F39346"/>
<path d="M242.855 533.593H289.996L362.484 461.103L338.914 437.533L242.855 533.593Z" fill="#F39346"/>
</svg>
