<svg width="800" height="800" viewBox="0 0 800 800" fill="none" xmlns="http://www.w3.org/2000/svg">
<g clip-path="url(#clip0_34_366)">
<path d="M400.002 800C395.722 800 391.447 798.823 387.672 796.47C170.355 660.961 86.9889 489.772 55.3233 370.022C21.4636 241.989 37.5527 145.625 38.842 138.39L39.2148 136.076C41.0012 124.911 50.5467 116.643 61.8514 116.465C63.0203 116.437 186.211 112.608 289.192 7.02921C296.194 -0.147388 307.001 -2.04251 316.026 2.32636C342.317 15.0524 370.569 21.5028 400.002 21.5028C429.434 21.5028 457.686 15.0485 483.977 2.32636C493.006 -2.04251 503.81 -0.147388 510.812 7.02921C614.453 113.288 736.929 116.445 738.152 116.465C749.457 116.643 759.002 124.911 760.789 136.076L761.162 138.39C762.455 145.625 778.54 241.989 744.68 370.022C713.015 489.772 629.649 660.961 412.332 796.474C408.557 798.823 404.277 800 400.002 800ZM82.8258 161.431C79.7191 192.258 76.158 267.907 100.95 360.275C143.167 517.554 243.744 648.305 399.994 749.108C595.18 623.012 670.712 467.438 699.625 358.108C723.912 266.268 720.339 191.912 717.209 161.435C675.761 156.382 578.03 135.676 489.034 51.0169C460.778 62.3643 430.902 68.1079 399.998 68.1079C369.094 68.1079 339.218 62.3682 310.962 51.0169C221.997 135.649 124.297 156.367 82.8258 161.431Z" fill="#F39346"/>
<path d="M400.002 655.509C395.722 655.509 391.446 654.332 387.672 651.979C248.757 565.359 195.473 451.116 175.228 370.531C153.24 282.998 164.32 216.145 164.801 213.341L165.015 212.009C166.801 200.844 176.347 192.576 187.651 192.398C188.292 192.382 262.322 189.827 324.247 126.336C331.249 119.16 342.057 117.265 351.082 121.633C366.394 129.047 382.852 132.802 400.002 132.802C417.151 132.802 433.609 129.043 448.921 121.633C457.95 117.265 468.754 119.16 475.756 126.336C537.681 189.827 611.715 192.378 612.457 192.398C623.684 192.673 633.218 200.922 634.992 212.009L635.249 213.609C635.688 216.145 646.763 282.998 624.779 370.531C604.539 451.116 551.246 565.359 412.336 651.979C408.557 654.332 404.277 655.509 400.002 655.509ZM209.096 236.882C207.434 260.051 206.863 306.334 220.925 361.145C246.548 461.027 306.768 542.847 400.002 604.52C493.231 542.847 553.456 461.027 579.079 361.145C593.156 306.275 592.57 259.954 590.912 236.882C561.541 232.242 505.744 217.411 453.919 170.037C436.704 176.262 418.634 179.407 400.002 179.407C381.369 179.407 363.299 176.262 346.084 170.037C294.26 217.407 238.466 232.238 209.096 236.882Z" fill="#F39346"/>
<path d="M400.002 243.438L423.784 316.633H500.746L438.483 361.871L462.265 435.066L400.002 389.828L337.739 435.066L361.521 361.871L299.258 316.633H376.22L400.002 243.438Z" fill="#F39346"/>
</g>
<defs>
<clipPath id="clip0_34_366">
<rect width="800" height="800" fill="white"/>
</clipPath>
</defs>
</svg>
