<svg width="800" height="800" viewBox="0 0 800 800" fill="none" xmlns="http://www.w3.org/2000/svg">
<g clip-path="url(#clip0_20_31)">
<path d="M800 800H600V733.333H733.333V200H66.6667V733.333H133.333V800H0V133.333H233.333V0H566.667V133.333H800V800ZM300 133.333H500V66.6667H300V133.333ZM346.667 800C256.667 800 183.333 726.667 183.333 640C183.333 613.333 190 586.667 203.333 563.333C160 533.333 133.333 483.333 133.333 430C133.333 340 206.667 266.667 296.667 266.667C350 266.667 396.667 293.333 426.667 333.333C450 320 476.667 313.333 506.667 313.333C596.667 313.333 666.667 386.667 666.667 476.667C666.667 563.333 596.667 636.667 506.667 636.667V640C510 730 436.667 800 346.667 800ZM266.667 586.667C256.667 600 253.333 620 253.333 636.667C253.333 690 296.667 730 350 730C403.333 730 446.667 690 446.667 636.667C446.667 616.667 443.333 606.667 443.333 606.667C436.667 583.333 420 563.333 396.667 553.333C356.667 583.333 310 593.333 266.667 586.667ZM493.333 566.667C496.667 566.667 500 566.667 506.667 566.667C560 566.667 600 523.333 600 473.333C600 420 556.667 376.667 506.667 376.667C486.667 376.667 470 383.333 453.333 393.333C456.667 403.333 456.667 416.667 456.667 426.667C456.667 453.333 450 480 436.667 503.333C463.333 520 483.333 540 493.333 566.667ZM296.667 330C243.333 330 200 373.333 200 426.667C200 466.667 226.667 503.333 263.333 516.667C296.667 530 333.333 520 360 493.333C376.667 476.667 386.667 453.333 386.667 426.667C386.667 413.333 383.333 403.333 380 393.333C370 356.667 336.667 330 296.667 330Z" fill="#F39346"/>
</g>
<defs>
<clipPath id="clip0_20_31">
<rect width="800" height="800" fill="white"/>
</clipPath>
</defs>
</svg>
