<svg width="800" height="800" viewBox="0 0 800 800" fill="none" xmlns="http://www.w3.org/2000/svg">
<g clip-path="url(#clip0_34_361)">
<path d="M397.45 206.725C293.725 206.725 209.35 291.1 209.35 394.825C209.35 498.525 293.725 582.9 397.45 582.9C501.15 582.9 585.525 498.525 585.525 394.825C585.525 291.1 501.15 206.725 397.45 206.725ZM397.45 557.9C307.525 557.9 234.35 484.75 234.35 394.825C234.35 304.9 307.525 231.725 397.45 231.725C487.375 231.725 560.525 304.9 560.525 394.825C560.525 484.75 487.375 557.9 397.45 557.9Z" fill="#F39346"/>
<path d="M680.975 618.875C744.25 544.875 775 471.75 775 395.225V13.3751C775 8.35011 772 3.82511 767.375 1.87511C762.775 -0.0498919 757.425 0.900108 753.825 4.40011C703.8 52.7251 639.325 79.3501 572.325 79.3501C512.55 79.3501 453.025 57.3501 409.05 19.0001C404.35 14.9001 397.325 14.9001 392.625 19.0001C348.675 57.3501 288.625 79.3501 227.85 79.3501C132.6 79.3501 46.675 3.95011 45.825 3.17511C42.15 -0.0748916 36.875 -0.874892 32.4 1.10011C27.9 3.12511 25 7.57511 25 12.5001V395.225C25 510.3 88.525 616.8 208.725 703.2C298.45 767.725 386.8 798.075 390.5 799.325C391.8 799.775 393.175 800 394.525 800C395.8 800 397.075 799.8 398.275 799.425C405.45 797.15 575.125 742.575 680.975 618.875ZM394.675 774.275C356.425 760.2 50 639.55 50 395.225V38.3001C83.05 62.4251 151.5 104.325 227.825 104.325C290.85 104.325 353.275 82.7001 400.8 44.6751C448.325 82.7001 510.2 104.325 572.3 104.325C636.675 104.325 698.8 82.0251 749.975 41.0251V395.225C749.975 465.525 721.175 533.35 661.95 602.6C569.475 710.725 420.625 765.35 394.675 774.275Z" fill="#F39346"/>
<path d="M459.75 324.825L375.475 419.95L335.65 368.525C331.425 363.05 323.575 361.95 318.125 366.175C312.675 370.4 311.675 377.975 315.9 383.45L364.95 446.2C367.25 449.15 370.725 450 374.45 450C374.575 450 374.725 450 374.85 450C378.425 450 381.825 449.525 384.225 446.825L478.5 341.425C483.075 336.25 482.6 328.35 477.425 323.775C472.275 319.225 464.375 319.675 459.75 324.825Z" fill="#F39346"/>
</g>
<defs>
<clipPath id="clip0_34_361">
<rect width="800" height="800" fill="white"/>
</clipPath>
</defs>
</svg>
