<svg width="512" height="512" viewBox="0 0 512 512" fill="none" xmlns="http://www.w3.org/2000/svg">
<path d="M450.536 224.687H500.512L256.001 0L11.4888 224.687H61.4648V494.044H22.5578V512.001H489.444V494.044H450.537L450.536 224.687ZM57.5688 206.73L83.6248 182.787H345.786V164.83H103.166L256.001 24.387L454.432 206.729L57.5688 206.73ZM79.4218 278.558H148.258V260.601H79.4218V224.687H432.579V260.601H363.743V278.558H432.579V494.044H264.979V434.187H330.822V350.387H348.779V290.53H300.893V245.637H282.936V290.53H229.065V245.637H211.108V290.53H163.222V350.387H181.179V434.187H247.022V494.044H79.4218V278.558ZM330.822 308.486V332.429H181.179V308.486H330.822ZM199.136 350.386H312.865V416.229H199.136V350.386Z" fill="#F39346"/>
<path d="M256.001 69.0581C234.547 69.0581 217.094 86.5121 217.094 107.965C217.094 129.418 234.547 146.872 256.001 146.872C277.455 146.872 294.908 129.418 294.908 107.965C294.908 86.5121 277.455 69.0581 256.001 69.0581ZM256.001 128.916C244.45 128.916 235.051 119.517 235.051 107.966C235.051 96.4151 244.45 87.0161 256.001 87.0161C267.552 87.0161 276.951 96.4151 276.951 107.966C276.951 119.517 267.552 128.916 256.001 128.916Z" fill="#F39346"/>
<path d="M285.925 374.335H226.068V392.292H285.925V374.335Z" fill="#F39346"/>
<path d="M124.311 452.149H100.368V470.106H124.311V452.149Z" fill="#F39346"/>
<path d="M160.226 452.149H136.283V470.106H160.226V452.149Z" fill="#F39346"/>
<path d="M124.311 416.235H100.368V434.192H124.311V416.235Z" fill="#F39346"/>
<path d="M411.626 452.149H387.683V470.106H411.626V452.149Z" fill="#F39346"/>
<path d="M411.626 416.235H387.683V434.192H411.626V416.235Z" fill="#F39346"/>
<path d="M375.711 452.149H351.768V470.106H375.711V452.149Z" fill="#F39346"/>
</svg>
