<svg width="800" height="800" viewBox="0 0 800 800" fill="none" xmlns="http://www.w3.org/2000/svg">
<g clip-path="url(#clip0_34_343)">
<path d="M571.137 50.4565H229.123C211.434 50.4565 197.029 64.8569 197.029 82.5337V680.213C197.029 697.935 211.43 712.307 229.123 712.307H571.137C588.826 712.307 603.198 697.935 603.198 680.213V82.5337C603.198 64.8569 588.826 50.4565 571.137 50.4565ZM592.613 680.213C592.613 692.101 582.98 701.706 571.137 701.706H229.123C217.267 701.706 207.647 692.101 207.647 680.213V82.5337C207.647 70.6906 217.28 61.0577 229.123 61.0577H571.137C582.98 61.0577 592.613 70.6906 592.613 82.5337V680.213Z" fill="#F39346"/>
<path d="M603.129 15.8057H439.965C436.734 6.52001 427.947 0 417.844 0H373.237C363.163 0 354.364 6.52001 351.145 15.8057H196.854C176.399 15.8057 159.748 32.4448 159.748 52.9281V762.894C159.748 783.32 176.399 800 196.854 800H603.125C623.58 800 640.247 783.32 640.247 762.894V52.924C640.247 32.4407 623.58 15.8057 603.129 15.8057ZM629.617 762.878C629.617 777.511 617.729 789.383 603.113 789.383H196.854C182.233 789.383 170.349 777.511 170.349 762.878V52.924C170.349 38.303 182.237 26.4028 196.854 26.4028H359.973L360.586 21.7824C361.403 15.4217 366.856 10.6257 373.233 10.6257H417.84C424.245 10.6257 429.695 15.434 430.529 21.7824L431.129 26.4028H603.109C617.713 26.4028 629.613 38.2907 629.613 52.924V762.878H629.617Z" fill="#F39346"/>
<path d="M370.533 115.689H248.598V180.881H370.533V115.689ZM359.932 170.268H259.199V126.29H359.948V170.268H359.932Z" fill="#F39346"/>
<path d="M335.196 220.884H248.598V286.075H335.196V220.884ZM324.579 275.462H259.199V231.501H324.583L324.579 275.462Z" fill="#F39346"/>
<path d="M443.266 220.884H356.7V286.075H443.266V220.884ZM432.669 275.462H367.285V231.501H432.669V275.462Z" fill="#F39346"/>
<path d="M549.322 220.884H462.695V286.075H549.322V220.884ZM538.697 275.462H473.313V231.501H538.697V275.462Z" fill="#F39346"/>
<path d="M249.623 372.38H336.221V307.188H249.623V372.38ZM260.208 317.773H325.62V361.766H260.208V317.773Z" fill="#F39346"/>
<path d="M357.71 372.38H444.308V307.188H357.71V372.38ZM368.311 317.773H433.707V361.766H368.311V317.773Z" fill="#F39346"/>
<path d="M463.737 372.38H550.336V307.188H463.737V372.38ZM474.334 317.773H539.731V361.766H474.334V317.773Z" fill="#F39346"/>
<path d="M336.217 394.706H249.623V459.885H336.221L336.217 394.706ZM325.616 449.313H260.208V405.29H325.62C325.616 405.29 325.616 449.313 325.616 449.313Z" fill="#F39346"/>
<path d="M444.304 394.706H357.71V459.885H444.308L444.304 394.706ZM433.707 449.313H368.311V405.29H433.707V449.313Z" fill="#F39346"/>
<path d="M550.332 394.706H463.733V459.885H550.332V394.706ZM539.735 449.313H474.335V405.29H539.731V449.313H539.735Z" fill="#F39346"/>
<path d="M250.645 545.193H337.243V479.984H250.645V545.193ZM261.258 490.602H326.626V534.567H261.258V490.602Z" fill="#F39346"/>
<path d="M358.747 545.193H445.346V479.984H358.747V545.193ZM369.332 490.602H434.716V534.567H369.332V490.602Z" fill="#F39346"/>
<path d="M464.759 545.193H551.369V479.984H464.759V545.193ZM475.36 490.602H540.772V534.567H475.36V490.602Z" fill="#F39346"/>
</g>
<defs>
<clipPath id="clip0_34_343">
<rect width="800" height="800" fill="white"/>
</clipPath>
</defs>
</svg>
