<svg width="800" height="800" viewBox="0 0 800 800" fill="none" xmlns="http://www.w3.org/2000/svg">
<path fill-rule="evenodd" clip-rule="evenodd" d="M141.667 200C141.667 112.555 212.555 41.6667 300 41.6667C387.447 41.6667 458.333 112.555 458.333 200C458.333 287.445 387.447 358.333 300 358.333C212.555 358.333 141.667 287.445 141.667 200ZM300 91.6667C240.169 91.6667 191.667 140.169 191.667 200C191.667 259.831 240.169 308.333 300 308.333C359.83 308.333 408.333 259.831 408.333 200C408.333 140.169 359.83 91.6667 300 91.6667Z" fill="#F39346"/>
<path fill-rule="evenodd" clip-rule="evenodd" d="M122.605 450.68C169.251 424.027 232.022 408.333 300 408.333C367.977 408.333 430.75 424.027 477.397 450.68C523.333 476.93 558.333 517.003 558.333 566.667C558.333 616.33 523.333 656.403 477.397 682.653C430.75 709.307 367.977 725 300 725C232.022 725 169.251 709.307 122.605 682.653C76.6667 656.403 41.6667 616.33 41.6667 566.667C41.6667 517.003 76.6667 476.93 122.605 450.68ZM147.412 494.093C108.9 516.1 91.6667 542.69 91.6667 566.667C91.6667 590.643 108.9 617.233 147.412 639.24C185.216 660.843 239.111 675 300 675C360.89 675 414.783 660.843 452.587 639.24C491.1 617.233 508.333 590.643 508.333 566.667C508.333 542.69 491.1 516.1 452.587 494.093C414.783 472.49 360.89 458.333 300 458.333C239.111 458.333 185.216 472.49 147.412 494.093Z" fill="#F39346"/>
<path fill-rule="evenodd" clip-rule="evenodd" d="M523.01 248.231C547.03 237.601 574.93 239.616 600 255.963C625.07 239.616 652.97 237.601 676.99 248.231C705.493 260.844 725 289.976 725 323.324C725 354.937 711.193 378.733 694.647 396.77C681.737 410.847 665.763 422.733 653.15 432.12C650.443 434.137 647.883 436.04 645.55 437.823L645.483 437.873C640.527 441.657 634.117 446.547 627.357 450.37C620.56 454.217 611.147 458.333 600 458.333C588.853 458.333 579.44 454.217 572.643 450.37C565.883 446.55 559.473 441.657 554.517 437.873L554.45 437.823C552.117 436.04 549.563 434.14 546.857 432.127C534.243 422.737 518.263 410.847 505.353 396.77C488.807 378.733 475 354.937 475 323.324C475 289.976 494.507 260.844 523.01 248.231ZM525 323.324C525 309.592 532.993 298.49 543.243 293.954C552.117 290.027 566.247 289.625 582.27 305.744C586.963 310.464 593.343 313.118 600 313.118C606.657 313.118 613.037 310.464 617.73 305.744C633.753 289.625 647.883 290.027 656.757 293.954C667.007 298.49 675 309.592 675 323.324C675 338.793 668.71 351.08 657.803 362.97C648.4 373.22 637.19 381.6 624.793 390.863C621.673 393.197 618.477 395.587 615.217 398.077C609.797 402.21 606.043 404.983 602.737 406.853C601.403 407.61 600.51 407.997 600 408.187C599.49 407.997 598.597 407.61 597.263 406.853C593.957 404.983 590.203 402.21 584.783 398.077C581.523 395.587 578.33 393.2 575.21 390.867C562.813 381.6 551.6 373.22 542.197 362.97C531.29 351.08 525 338.793 525 323.324Z" fill="#F39346"/>
</svg>
